  0
SECTION
  2
HEADER
  9
$ACADVER
  1
AC1009
  9
$MEASUREMENT
 70
     1
  0
ENDSEC
  0
SECTION
  2
ENTITIES
  0
LWPOLYLINE
  8
0
 62
7
 90
5
 70
1
 10
77.400000
 20
31.300000
 10
77.400000
 20
31.950000
 10
76.300000
 20
31.950000
 10
76.300000
 20
30.650000
 10
77.400000
 20
30.650000
  0
LWPOLYLINE
  8
0
 62
7
 90
5
 70
1
 10
79.300000
 20
31.300000
 10
79.300000
 20
31.950000
 10
78.200000
 20
31.950000
 10
78.200000
 20
30.650000
 10
79.300000
 20
30.650000
  0
LWPOLYLINE
  8
0
 62
7
 90
5
 70
1
 10
11.900000
 20
15.700000
 10
11.900000
 20
15.050000
 10
13.000000
 20
15.050000
 10
13.000000
 20
16.350000
 10
11.900000
 20
16.350000
  0
LWPOLYLINE
  8
0
 62
7
 90
5
 70
1
 10
10.000000
 20
15.700000
 10
10.000000
 20
15.050000
 10
11.100000
 20
15.050000
 10
11.100000
 20
16.350000
 10
10.000000
 20
16.350000
  0
LWPOLYLINE
  8
0
 62
7
 90
5
 70
1
 10
84.050000
 20
43.450000
 10
84.700000
 20
43.450000
 10
84.700000
 20
44.550000
 10
83.400000
 20
44.550000
 10
83.400000
 20
43.450000
  0
LWPOLYLINE
  8
0
 62
7
 90
5
 70
1
 10
84.050000
 20
41.550000
 10
84.700000
 20
41.550000
 10
84.700000
 20
42.650000
 10
83.400000
 20
42.650000
 10
83.400000
 20
41.550000
  0
LWPOLYLINE
  8
0
 62
7
 90
5
 70
1
 10
73.925000
 20
43.450000
 10
74.575000
 20
43.450000
 10
74.575000
 20
44.550000
 10
73.275000
 20
44.550000
 10
73.275000
 20
43.450000
  0
LWPOLYLINE
  8
0
 62
7
 90
5
 70
1
 10
73.925000
 20
41.550000
 10
74.575000
 20
41.550000
 10
74.575000
 20
42.650000
 10
73.275000
 20
42.650000
 10
73.275000
 20
41.550000
  0
LWPOLYLINE
  8
0
 62
7
 90
5
 70
1
 10
73.925000
 20
38.700000
 10
74.575000
 20
38.700000
 10
74.575000
 20
39.800000
 10
73.275000
 20
39.800000
 10
73.275000
 20
38.700000
  0
LWPOLYLINE
  8
0
 62
7
 90
5
 70
1
 10
73.925000
 20
36.800000
 10
74.575000
 20
36.800000
 10
74.575000
 20
37.900000
 10
73.275000
 20
37.900000
 10
73.275000
 20
36.800000
  0
LWPOLYLINE
  8
0
 62
7
 90
5
 70
1
 10
89.450000
 20
43.050000
 10
89.450000
 20
42.400000
 10
90.550000
 20
42.400000
 10
90.550000
 20
43.700000
 10
89.450000
 20
43.700000
  0
LWPOLYLINE
  8
0
 62
7
 90
5
 70
1
 10
87.550000
 20
43.050000
 10
87.550000
 20
42.400000
 10
88.650000
 20
42.400000
 10
88.650000
 20
43.700000
 10
87.550000
 20
43.700000
  0
LWPOLYLINE
  8
0
 62
7
 90
5
 70
1
 10
79.950000
 20
43.050000
 10
79.950000
 20
42.400000
 10
81.050000
 20
42.400000
 10
81.050000
 20
43.700000
 10
79.950000
 20
43.700000
  0
LWPOLYLINE
  8
0
 62
7
 90
5
 70
1
 10
78.050000
 20
43.050000
 10
78.050000
 20
42.400000
 10
79.150000
 20
42.400000
 10
79.150000
 20
43.700000
 10
78.050000
 20
43.700000
  0
LWPOLYLINE
  8
0
 62
7
 90
5
 70
1
 10
17.050000
 20
40.650000
 10
16.400000
 20
40.650000
 10
16.400000
 20
39.550000
 10
17.700000
 20
39.550000
 10
17.700000
 20
40.650000
  0
LWPOLYLINE
  8
0
 62
7
 90
5
 70
1
 10
17.050000
 20
42.550000
 10
16.400000
 20
42.550000
 10
16.400000
 20
41.450000
 10
17.700000
 20
41.450000
 10
17.700000
 20
42.550000
  0
LWPOLYLINE
  8
0
 62
7
 90
5
 70
1
 10
12.800000
 20
2.450000
 10
13.450000
 20
2.450000
 10
13.450000
 20
3.550000
 10
12.150000
 20
3.550000
 10
12.150000
 20
2.450000
  0
LWPOLYLINE
  8
0
 62
7
 90
5
 70
1
 10
12.800000
 20
0.550000
 10
13.450000
 20
0.550000
 10
13.450000
 20
1.650000
 10
12.150000
 20
1.650000
 10
12.150000
 20
0.550000
  0
LWPOLYLINE
  8
0
 62
7
 90
5
 70
1
 10
40.175000
 20
17.650000
 10
39.525000
 20
17.650000
 10
39.525000
 20
16.550000
 10
40.825000
 20
16.550000
 10
40.825000
 20
17.650000
  0
LWPOLYLINE
  8
0
 62
7
 90
5
 70
1
 10
40.175000
 20
19.550000
 10
39.525000
 20
19.550000
 10
39.525000
 20
18.450000
 10
40.825000
 20
18.450000
 10
40.825000
 20
19.550000
  0
LWPOLYLINE
  8
0
 62
7
 90
5
 70
1
 10
87.000000
 20
3.300000
 10
87.000000
 20
5.850000
 10
85.200000
 20
5.850000
 10
85.200000
 20
0.750000
 10
87.000000
 20
0.750000
  0
LWPOLYLINE
  8
0
 62
7
 90
5
 70
1
 10
94.400000
 20
3.300000
 10
94.400000
 20
5.850000
 10
92.600000
 20
5.850000
 10
92.600000
 20
0.750000
 10
94.400000
 20
0.750000
  0
LWPOLYLINE
  8
0
 62
7
 90
5
 70
1
 10
90.950000
 20
7.800000
 10
90.950000
 20
8.950000
 10
90.150000
 20
8.950000
 10
90.150000
 20
6.650000
 10
90.950000
 20
6.650000
  0
LWPOLYLINE
  8
0
 62
7
 90
5
 70
1
 10
93.950000
 20
7.800000
 10
93.950000
 20
8.950000
 10
93.150000
 20
8.950000
 10
93.150000
 20
6.650000
 10
93.950000
 20
6.650000
  0
LWPOLYLINE
  8
0
 62
7
 90
5
 70
1
 10
79.349800
 20
33.383000
 10
79.349800
 20
34.045000
 10
78.940200
 20
34.045000
 10
78.940200
 20
32.721000
 10
79.349800
 20
32.721000
  0
LWPOLYLINE
  8
0
 62
7
 90
5
 70
1
 10
76.809800
 20
38.844000
 10
76.809800
 20
39.506000
 10
76.400200
 20
39.506000
 10
76.400200
 20
38.182000
 10
76.809800
 20
38.182000
  0
LWPOLYLINE
  8
0
 62
7
 90
5
 70
1
 10
78.079800
 20
38.844000
 10
78.079800
 20
39.506000
 10
77.670200
 20
39.506000
 10
77.670200
 20
38.182000
 10
78.079800
 20
38.182000
  0
LWPOLYLINE
  8
0
 62
7
 90
5
 70
1
 10
79.349800
 20
38.844000
 10
79.349800
 20
39.506000
 10
78.940200
 20
39.506000
 10
78.940200
 20
38.182000
 10
79.349800
 20
38.182000
  0
LWPOLYLINE
  8
0
 62
7
 90
5
 70
1
 10
80.619800
 20
38.844000
 10
80.619800
 20
39.506000
 10
80.210200
 20
39.506000
 10
80.210200
 20
38.182000
 10
80.619800
 20
38.182000
  0
LWPOLYLINE
  8
0
 62
7
 90
5
 70
1
 10
81.889800
 20
38.844000
 10
81.889800
 20
39.506000
 10
81.480200
 20
39.506000
 10
81.480200
 20
38.182000
 10
81.889800
 20
38.182000
  0
LWPOLYLINE
  8
0
 62
7
 90
5
 70
1
 10
83.159800
 20
38.844000
 10
83.159800
 20
39.506000
 10
82.750200
 20
39.506000
 10
82.750200
 20
38.182000
 10
83.159800
 20
38.182000
  0
LWPOLYLINE
  8
0
 62
7
 90
5
 70
1
 10
84.429800
 20
38.844000
 10
84.429800
 20
39.506000
 10
84.020200
 20
39.506000
 10
84.020200
 20
38.182000
 10
84.429800
 20
38.182000
  0
LWPOLYLINE
  8
0
 62
7
 90
5
 70
1
 10
85.699800
 20
38.844000
 10
85.699800
 20
39.506000
 10
85.290200
 20
39.506000
 10
85.290200
 20
38.182000
 10
85.699800
 20
38.182000
  0
LWPOLYLINE
  8
0
 62
7
 90
5
 70
1
 10
80.619800
 20
33.383000
 10
80.619800
 20
34.045000
 10
80.210200
 20
34.045000
 10
80.210200
 20
32.721000
 10
80.619800
 20
32.721000
  0
LWPOLYLINE
  8
0
 62
7
 90
5
 70
1
 10
84.429800
 20
33.383000
 10
84.429800
 20
34.045000
 10
84.020200
 20
34.045000
 10
84.020200
 20
32.721000
 10
84.429800
 20
32.721000
  0
LWPOLYLINE
  8
0
 62
7
 90
5
 70
1
 10
85.699800
 20
33.383000
 10
85.699800
 20
34.045000
 10
85.290200
 20
34.045000
 10
85.290200
 20
32.721000
 10
85.699800
 20
32.721000
  0
LWPOLYLINE
  8
0
 62
7
 90
5
 70
1
 10
83.159800
 20
33.383000
 10
83.159800
 20
34.045000
 10
82.750200
 20
34.045000
 10
82.750200
 20
32.721000
 10
83.159800
 20
32.721000
  0
LWPOLYLINE
  8
0
 62
7
 90
5
 70
1
 10
81.889800
 20
33.383000
 10
81.889800
 20
34.045000
 10
81.480200
 20
34.045000
 10
81.480200
 20
32.721000
 10
81.889800
 20
32.721000
  0
LWPOLYLINE
  8
0
 62
7
 90
5
 70
1
 10
76.809800
 20
33.383000
 10
76.809800
 20
34.045000
 10
76.400200
 20
34.045000
 10
76.400200
 20
32.721000
 10
76.809800
 20
32.721000
  0
LWPOLYLINE
  8
0
 62
7
 90
5
 70
1
 10
78.079800
 20
33.383000
 10
78.079800
 20
34.045000
 10
77.670200
 20
34.045000
 10
77.670200
 20
32.721000
 10
78.079800
 20
32.721000
  0
LWPOLYLINE
  8
0
 62
7
 90
5
 70
1
 10
12.717000
 20
20.349800
 10
12.055000
 20
20.349800
 10
12.055000
 20
19.940200
 10
13.379000
 20
19.940200
 10
13.379000
 20
20.349800
  0
LWPOLYLINE
  8
0
 62
7
 90
5
 70
1
 10
7.256000
 20
17.809800
 10
6.594000
 20
17.809800
 10
6.594000
 20
17.400200
 10
7.918000
 20
17.400200
 10
7.918000
 20
17.809800
  0
LWPOLYLINE
  8
0
 62
7
 90
5
 70
1
 10
7.256000
 20
19.079800
 10
6.594000
 20
19.079800
 10
6.594000
 20
18.670200
 10
7.918000
 20
18.670200
 10
7.918000
 20
19.079800
  0
LWPOLYLINE
  8
0
 62
7
 90
5
 70
1
 10
7.256000
 20
20.349800
 10
6.594000
 20
20.349800
 10
6.594000
 20
19.940200
 10
7.918000
 20
19.940200
 10
7.918000
 20
20.349800
  0
LWPOLYLINE
  8
0
 62
7
 90
5
 70
1
 10
7.256000
 20
21.619800
 10
6.594000
 20
21.619800
 10
6.594000
 20
21.210200
 10
7.918000
 20
21.210200
 10
7.918000
 20
21.619800
  0
LWPOLYLINE
  8
0
 62
7
 90
5
 70
1
 10
7.256000
 20
22.889800
 10
6.594000
 20
22.889800
 10
6.594000
 20
22.480200
 10
7.918000
 20
22.480200
 10
7.918000
 20
22.889800
  0
LWPOLYLINE
  8
0
 62
7
 90
5
 70
1
 10
7.256000
 20
24.159800
 10
6.594000
 20
24.159800
 10
6.594000
 20
23.750200
 10
7.918000
 20
23.750200
 10
7.918000
 20
24.159800
  0
LWPOLYLINE
  8
0
 62
7
 90
5
 70
1
 10
7.256000
 20
25.429800
 10
6.594000
 20
25.429800
 10
6.594000
 20
25.020200
 10
7.918000
 20
25.020200
 10
7.918000
 20
25.429800
  0
LWPOLYLINE
  8
0
 62
7
 90
5
 70
1
 10
7.256000
 20
26.699800
 10
6.594000
 20
26.699800
 10
6.594000
 20
26.290200
 10
7.918000
 20
26.290200
 10
7.918000
 20
26.699800
  0
LWPOLYLINE
  8
0
 62
7
 90
5
 70
1
 10
12.717000
 20
21.619800
 10
12.055000
 20
21.619800
 10
12.055000
 20
21.210200
 10
13.379000
 20
21.210200
 10
13.379000
 20
21.619800
  0
LWPOLYLINE
  8
0
 62
7
 90
5
 70
1
 10
12.717000
 20
25.429800
 10
12.055000
 20
25.429800
 10
12.055000
 20
25.020200
 10
13.379000
 20
25.020200
 10
13.379000
 20
25.429800
  0
LWPOLYLINE
  8
0
 62
7
 90
5
 70
1
 10
12.717000
 20
26.699800
 10
12.055000
 20
26.699800
 10
12.055000
 20
26.290200
 10
13.379000
 20
26.290200
 10
13.379000
 20
26.699800
  0
LWPOLYLINE
  8
0
 62
7
 90
5
 70
1
 10
12.717000
 20
24.159800
 10
12.055000
 20
24.159800
 10
12.055000
 20
23.750200
 10
13.379000
 20
23.750200
 10
13.379000
 20
24.159800
  0
LWPOLYLINE
  8
0
 62
7
 90
5
 70
1
 10
12.717000
 20
22.889800
 10
12.055000
 20
22.889800
 10
12.055000
 20
22.480200
 10
13.379000
 20
22.480200
 10
13.379000
 20
22.889800
  0
LWPOLYLINE
  8
0
 62
7
 90
5
 70
1
 10
12.717000
 20
17.809800
 10
12.055000
 20
17.809800
 10
12.055000
 20
17.400200
 10
13.379000
 20
17.400200
 10
13.379000
 20
17.809800
  0
LWPOLYLINE
  8
0
 62
7
 90
5
 70
1
 10
12.717000
 20
19.079800
 10
12.055000
 20
19.079800
 10
12.055000
 20
18.670200
 10
13.379000
 20
18.670200
 10
13.379000
 20
19.079800
  0
LWPOLYLINE
  8
0
 62
7
 90
5
 70
1
 10
12.717000
 20
7.349800
 10
12.055000
 20
7.349800
 10
12.055000
 20
6.940200
 10
13.379000
 20
6.940200
 10
13.379000
 20
7.349800
  0
LWPOLYLINE
  8
0
 62
7
 90
5
 70
1
 10
7.256000
 20
4.809800
 10
6.594000
 20
4.809800
 10
6.594000
 20
4.400200
 10
7.918000
 20
4.400200
 10
7.918000
 20
4.809800
  0
LWPOLYLINE
  8
0
 62
7
 90
5
 70
1
 10
7.256000
 20
6.079800
 10
6.594000
 20
6.079800
 10
6.594000
 20
5.670200
 10
7.918000
 20
5.670200
 10
7.918000
 20
6.079800
  0
LWPOLYLINE
  8
0
 62
7
 90
5
 70
1
 10
7.256000
 20
7.349800
 10
6.594000
 20
7.349800
 10
6.594000
 20
6.940200
 10
7.918000
 20
6.940200
 10
7.918000
 20
7.349800
  0
LWPOLYLINE
  8
0
 62
7
 90
5
 70
1
 10
7.256000
 20
8.619800
 10
6.594000
 20
8.619800
 10
6.594000
 20
8.210200
 10
7.918000
 20
8.210200
 10
7.918000
 20
8.619800
  0
LWPOLYLINE
  8
0
 62
7
 90
5
 70
1
 10
7.256000
 20
9.889800
 10
6.594000
 20
9.889800
 10
6.594000
 20
9.480200
 10
7.918000
 20
9.480200
 10
7.918000
 20
9.889800
  0
LWPOLYLINE
  8
0
 62
7
 90
5
 70
1
 10
7.256000
 20
11.159800
 10
6.594000
 20
11.159800
 10
6.594000
 20
10.750200
 10
7.918000
 20
10.750200
 10
7.918000
 20
11.159800
  0
LWPOLYLINE
  8
0
 62
7
 90
5
 70
1
 10
7.256000
 20
12.429800
 10
6.594000
 20
12.429800
 10
6.594000
 20
12.020200
 10
7.918000
 20
12.020200
 10
7.918000
 20
12.429800
  0
LWPOLYLINE
  8
0
 62
7
 90
5
 70
1
 10
7.256000
 20
13.699800
 10
6.594000
 20
13.699800
 10
6.594000
 20
13.290200
 10
7.918000
 20
13.290200
 10
7.918000
 20
13.699800
  0
LWPOLYLINE
  8
0
 62
7
 90
5
 70
1
 10
12.717000
 20
8.619800
 10
12.055000
 20
8.619800
 10
12.055000
 20
8.210200
 10
13.379000
 20
8.210200
 10
13.379000
 20
8.619800
  0
LWPOLYLINE
  8
0
 62
7
 90
5
 70
1
 10
12.717000
 20
12.429800
 10
12.055000
 20
12.429800
 10
12.055000
 20
12.020200
 10
13.379000
 20
12.020200
 10
13.379000
 20
12.429800
  0
LWPOLYLINE
  8
0
 62
7
 90
5
 70
1
 10
12.717000
 20
13.699800
 10
12.055000
 20
13.699800
 10
12.055000
 20
13.290200
 10
13.379000
 20
13.290200
 10
13.379000
 20
13.699800
  0
LWPOLYLINE
  8
0
 62
7
 90
5
 70
1
 10
12.717000
 20
11.159800
 10
12.055000
 20
11.159800
 10
12.055000
 20
10.750200
 10
13.379000
 20
10.750200
 10
13.379000
 20
11.159800
  0
LWPOLYLINE
  8
0
 62
7
 90
5
 70
1
 10
12.717000
 20
9.889800
 10
12.055000
 20
9.889800
 10
12.055000
 20
9.480200
 10
13.379000
 20
9.480200
 10
13.379000
 20
9.889800
  0
LWPOLYLINE
  8
0
 62
7
 90
5
 70
1
 10
12.717000
 20
4.809800
 10
12.055000
 20
4.809800
 10
12.055000
 20
4.400200
 10
13.379000
 20
4.400200
 10
13.379000
 20
4.809800
  0
LWPOLYLINE
  8
0
 62
7
 90
5
 70
1
 10
12.717000
 20
6.079800
 10
12.055000
 20
6.079800
 10
12.055000
 20
5.670200
 10
13.379000
 20
5.670200
 10
13.379000
 20
6.079800
  0
LWPOLYLINE
  8
0
 62
7
 90
5
 70
1
 10
45.740000
 20
22.400000
 10
45.740000
 20
22.380000
 10
46.360000
 20
22.380000
 10
46.360000
 20
22.420000
 10
45.740000
 20
22.420000
  0
LWPOLYLINE
  8
0
 62
7
 90
5
 70
1
 10
45.740000
 20
21.950000
 10
45.740000
 20
21.930000
 10
46.360000
 20
21.930000
 10
46.360000
 20
21.970000
 10
45.740000
 20
21.970000
  0
LWPOLYLINE
  8
0
 62
7
 90
5
 70
1
 10
45.740000
 20
21.500000
 10
45.740000
 20
21.480000
 10
46.360000
 20
21.480000
 10
46.360000
 20
21.520000
 10
45.740000
 20
21.520000
  0
LWPOLYLINE
  8
0
 62
7
 90
5
 70
1
 10
45.740000
 20
21.050000
 10
45.740000
 20
21.030000
 10
46.360000
 20
21.030000
 10
46.360000
 20
21.070000
 10
45.740000
 20
21.070000
  0
LWPOLYLINE
  8
0
 62
7
 90
5
 70
1
 10
45.740000
 20
20.600000
 10
45.740000
 20
20.580000
 10
46.360000
 20
20.580000
 10
46.360000
 20
20.620000
 10
45.740000
 20
20.620000
  0
LWPOLYLINE
  8
0
 62
7
 90
5
 70
1
 10
45.740000
 20
20.150000
 10
45.740000
 20
20.130000
 10
46.360000
 20
20.130000
 10
46.360000
 20
20.170000
 10
45.740000
 20
20.170000
  0
LWPOLYLINE
  8
0
 62
7
 90
5
 70
1
 10
45.740000
 20
19.700000
 10
45.740000
 20
19.680000
 10
46.360000
 20
19.680000
 10
46.360000
 20
19.720000
 10
45.740000
 20
19.720000
  0
LWPOLYLINE
  8
0
 62
7
 90
5
 70
1
 10
45.400000
 20
19.360000
 10
45.380000
 20
19.360000
 10
45.380000
 20
18.740000
 10
45.420000
 20
18.740000
 10
45.420000
 20
19.360000
  0
LWPOLYLINE
  8
0
 62
7
 90
5
 70
1
 10
44.950000
 20
19.360000
 10
44.930000
 20
19.360000
 10
44.930000
 20
18.740000
 10
44.970000
 20
18.740000
 10
44.970000
 20
19.360000
  0
LWPOLYLINE
  8
0
 62
7
 90
5
 70
1
 10
44.500000
 20
19.360000
 10
44.480000
 20
19.360000
 10
44.480000
 20
18.740000
 10
44.520000
 20
18.740000
 10
44.520000
 20
19.360000
  0
LWPOLYLINE
  8
0
 62
7
 90
5
 70
1
 10
44.050000
 20
19.360000
 10
44.030000
 20
19.360000
 10
44.030000
 20
18.740000
 10
44.070000
 20
18.740000
 10
44.070000
 20
19.360000
  0
LWPOLYLINE
  8
0
 62
7
 90
5
 70
1
 10
43.600000
 20
19.360000
 10
43.580000
 20
19.360000
 10
43.580000
 20
18.740000
 10
43.620000
 20
18.740000
 10
43.620000
 20
19.360000
  0
LWPOLYLINE
  8
0
 62
7
 90
5
 70
1
 10
43.150000
 20
19.360000
 10
43.130000
 20
19.360000
 10
43.130000
 20
18.740000
 10
43.170000
 20
18.740000
 10
43.170000
 20
19.360000
  0
LWPOLYLINE
  8
0
 62
7
 90
5
 70
1
 10
42.700000
 20
19.360000
 10
42.680000
 20
19.360000
 10
42.680000
 20
18.740000
 10
42.720000
 20
18.740000
 10
42.720000
 20
19.360000
  0
LWPOLYLINE
  8
0
 62
7
 90
5
 70
1
 10
42.360000
 20
19.700000
 10
42.360000
 20
19.720000
 10
41.740000
 20
19.720000
 10
41.740000
 20
19.680000
 10
42.360000
 20
19.680000
  0
LWPOLYLINE
  8
0
 62
7
 90
5
 70
1
 10
42.360000
 20
20.150000
 10
42.360000
 20
20.170000
 10
41.740000
 20
20.170000
 10
41.740000
 20
20.130000
 10
42.360000
 20
20.130000
  0
LWPOLYLINE
  8
0
 62
7
 90
5
 70
1
 10
42.360000
 20
20.600000
 10
42.360000
 20
20.620000
 10
41.740000
 20
20.620000
 10
41.740000
 20
20.580000
 10
42.360000
 20
20.580000
  0
LWPOLYLINE
  8
0
 62
7
 90
5
 70
1
 10
42.360000
 20
21.050000
 10
42.360000
 20
21.070000
 10
41.740000
 20
21.070000
 10
41.740000
 20
21.030000
 10
42.360000
 20
21.030000
  0
LWPOLYLINE
  8
0
 62
7
 90
5
 70
1
 10
42.360000
 20
21.500000
 10
42.360000
 20
21.520000
 10
41.740000
 20
21.520000
 10
41.740000
 20
21.480000
 10
42.360000
 20
21.480000
  0
LWPOLYLINE
  8
0
 62
7
 90
5
 70
1
 10
42.360000
 20
21.950000
 10
42.360000
 20
21.970000
 10
41.740000
 20
21.970000
 10
41.740000
 20
21.930000
 10
42.360000
 20
21.930000
  0
LWPOLYLINE
  8
0
 62
7
 90
5
 70
1
 10
42.360000
 20
22.400000
 10
42.360000
 20
22.420000
 10
41.740000
 20
22.420000
 10
41.740000
 20
22.380000
 10
42.360000
 20
22.380000
  0
LWPOLYLINE
  8
0
 62
7
 90
5
 70
1
 10
42.700000
 20
22.740000
 10
42.720000
 20
22.740000
 10
42.720000
 20
23.360000
 10
42.680000
 20
23.360000
 10
42.680000
 20
22.740000
  0
LWPOLYLINE
  8
0
 62
7
 90
5
 70
1
 10
43.150000
 20
22.740000
 10
43.170000
 20
22.740000
 10
43.170000
 20
23.360000
 10
43.130000
 20
23.360000
 10
43.130000
 20
22.740000
  0
LWPOLYLINE
  8
0
 62
7
 90
5
 70
1
 10
43.600000
 20
22.740000
 10
43.620000
 20
22.740000
 10
43.620000
 20
23.360000
 10
43.580000
 20
23.360000
 10
43.580000
 20
22.740000
  0
LWPOLYLINE
  8
0
 62
7
 90
5
 70
1
 10
44.050000
 20
22.740000
 10
44.070000
 20
22.740000
 10
44.070000
 20
23.360000
 10
44.030000
 20
23.360000
 10
44.030000
 20
22.740000
  0
LWPOLYLINE
  8
0
 62
7
 90
5
 70
1
 10
44.500000
 20
22.740000
 10
44.520000
 20
22.740000
 10
44.520000
 20
23.360000
 10
44.480000
 20
23.360000
 10
44.480000
 20
22.740000
  0
LWPOLYLINE
  8
0
 62
7
 90
5
 70
1
 10
44.950000
 20
22.740000
 10
44.970000
 20
22.740000
 10
44.970000
 20
23.360000
 10
44.930000
 20
23.360000
 10
44.930000
 20
22.740000
  0
LWPOLYLINE
  8
0
 62
7
 90
5
 70
1
 10
45.400000
 20
22.740000
 10
45.420000
 20
22.740000
 10
45.420000
 20
23.360000
 10
45.380000
 20
23.360000
 10
45.380000
 20
22.740000
  0
LWPOLYLINE
  8
0
 62
7
 90
5
 70
1
 10
89.500000
 20
45.550000
 10
89.500000
 20
44.850000
 10
89.800000
 20
44.850000
 10
89.800000
 20
46.250000
 10
89.500000
 20
46.250000
  0
LWPOLYLINE
  8
0
 62
7
 90
5
 70
1
 10
87.900000
 20
45.550000
 10
87.900000
 20
44.850000
 10
88.200000
 20
44.850000
 10
88.200000
 20
46.250000
 10
87.900000
 20
46.250000
  0
LWPOLYLINE
  8
0
 62
7
 90
5
 70
1
 10
86.300000
 20
45.550000
 10
86.300000
 20
44.850000
 10
86.600000
 20
44.850000
 10
86.600000
 20
46.250000
 10
86.300000
 20
46.250000
  0
LWPOLYLINE
  8
0
 62
7
 90
5
 70
1
 10
84.900000
 20
48.050000
 10
84.900000
 20
47.850000
 10
85.600000
 20
47.850000
 10
85.600000
 20
48.250000
 10
84.900000
 20
48.250000
  0
LWPOLYLINE
  8
0
 62
7
 90
5
 70
1
 10
85.750000
 20
50.450000
 10
85.750000
 20
49.650000
 10
87.350000
 20
49.650000
 10
87.350000
 20
51.250000
 10
85.750000
 20
51.250000
  0
LWPOLYLINE
  8
0
 62
7
 90
5
 70
1
 10
88.750000
 20
50.450000
 10
88.750000
 20
49.650000
 10
90.350000
 20
49.650000
 10
90.350000
 20
51.250000
 10
88.750000
 20
51.250000
  0
LWPOLYLINE
  8
0
 62
7
 90
5
 70
1
 10
90.500000
 20
48.050000
 10
90.500000
 20
47.850000
 10
91.200000
 20
47.850000
 10
91.200000
 20
48.250000
 10
90.500000
 20
48.250000
  0
LWPOLYLINE
  8
0
 62
7
 90
5
 70
1
 10
79.500000
 20
45.550000
 10
79.500000
 20
44.850000
 10
79.800000
 20
44.850000
 10
79.800000
 20
46.250000
 10
79.500000
 20
46.250000
  0
LWPOLYLINE
  8
0
 62
7
 90
5
 70
1
 10
77.900000
 20
45.550000
 10
77.900000
 20
44.850000
 10
78.200000
 20
44.850000
 10
78.200000
 20
46.250000
 10
77.900000
 20
46.250000
  0
LWPOLYLINE
  8
0
 62
7
 90
5
 70
1
 10
76.300000
 20
45.550000
 10
76.300000
 20
44.850000
 10
76.600000
 20
44.850000
 10
76.600000
 20
46.250000
 10
76.300000
 20
46.250000
  0
LWPOLYLINE
  8
0
 62
7
 90
5
 70
1
 10
74.900000
 20
48.050000
 10
74.900000
 20
47.850000
 10
75.600000
 20
47.850000
 10
75.600000
 20
48.250000
 10
74.900000
 20
48.250000
  0
LWPOLYLINE
  8
0
 62
7
 90
5
 70
1
 10
75.750000
 20
50.450000
 10
75.750000
 20
49.650000
 10
77.350000
 20
49.650000
 10
77.350000
 20
51.250000
 10
75.750000
 20
51.250000
  0
LWPOLYLINE
  8
0
 62
7
 90
5
 70
1
 10
78.750000
 20
50.450000
 10
78.750000
 20
49.650000
 10
80.350000
 20
49.650000
 10
80.350000
 20
51.250000
 10
78.750000
 20
51.250000
  0
LWPOLYLINE
  8
0
 62
7
 90
5
 70
1
 10
80.500000
 20
48.050000
 10
80.500000
 20
47.850000
 10
81.200000
 20
47.850000
 10
81.200000
 20
48.250000
 10
80.500000
 20
48.250000
  0
LWPOLYLINE
  8
0
 62
7
 90
5
 70
1
 10
52.050000
 20
4.325200
 10
53.067600
 20
4.325200
 10
53.067600
 20
5.852400
 10
51.032400
 20
5.852400
 10
51.032400
 20
4.325200
  0
LWPOLYLINE
  8
0
 62
7
 90
5
 70
1
 10
51.059400
 20
3.969600
 10
51.162600
 20
3.969600
 10
51.162600
 20
4.531600
 10
50.956200
 20
4.531600
 10
50.956200
 20
3.969600
  0
LWPOLYLINE
  8
0
 62
7
 90
5
 70
1
 10
51.719800
 20
3.969600
 10
51.823000
 20
3.969600
 10
51.823000
 20
4.531600
 10
51.616600
 20
4.531600
 10
51.616600
 20
3.969600
  0
LWPOLYLINE
  8
0
 62
7
 90
5
 70
1
 10
52.380200
 20
3.969600
 10
52.483400
 20
3.969600
 10
52.483400
 20
4.531600
 10
52.277000
 20
4.531600
 10
52.277000
 20
3.969600
  0
LWPOLYLINE
  8
0
 62
7
 90
5
 70
1
 10
53.040600
 20
3.969600
 10
53.143800
 20
3.969600
 10
53.143800
 20
4.531600
 10
52.937400
 20
4.531600
 10
52.937400
 20
3.969600
  0
LWPOLYLINE
  8
0
 62
7
 90
5
 70
1
 10
53.040600
 20
6.839800
 10
53.143800
 20
6.839800
 10
53.143800
 20
7.630400
 10
52.937400
 20
7.630400
 10
52.937400
 20
6.839800
  0
LWPOLYLINE
  8
0
 62
7
 90
5
 70
1
 10
51.059400
 20
6.839800
 10
51.162600
 20
6.839800
 10
51.162600
 20
7.630400
 10
50.956200
 20
7.630400
 10
50.956200
 20
6.839800
  0
LWPOLYLINE
  8
0
 62
7
 90
5
 70
1
 10
51.719800
 20
6.839800
 10
51.823000
 20
6.839800
 10
51.823000
 20
7.630400
 10
51.616600
 20
7.630400
 10
51.616600
 20
6.839800
  0
LWPOLYLINE
  8
0
 62
7
 90
5
 70
1
 10
52.380200
 20
6.839800
 10
52.483400
 20
6.839800
 10
52.483400
 20
7.630400
 10
52.277000
 20
7.630400
 10
52.277000
 20
6.839800
  0
LWPOLYLINE
  8
0
 62
7
 90
5
 70
1
 10
41.800000
 20
4.325200
 10
42.817600
 20
4.325200
 10
42.817600
 20
5.852400
 10
40.782400
 20
5.852400
 10
40.782400
 20
4.325200
  0
LWPOLYLINE
  8
0
 62
7
 90
5
 70
1
 10
40.809400
 20
3.969600
 10
40.912600
 20
3.969600
 10
40.912600
 20
4.531600
 10
40.706200
 20
4.531600
 10
40.706200
 20
3.969600
  0
LWPOLYLINE
  8
0
 62
7
 90
5
 70
1
 10
41.469800
 20
3.969600
 10
41.573000
 20
3.969600
 10
41.573000
 20
4.531600
 10
41.366600
 20
4.531600
 10
41.366600
 20
3.969600
  0
LWPOLYLINE
  8
0
 62
7
 90
5
 70
1
 10
42.130200
 20
3.969600
 10
42.233400
 20
3.969600
 10
42.233400
 20
4.531600
 10
42.027000
 20
4.531600
 10
42.027000
 20
3.969600
  0
LWPOLYLINE
  8
0
 62
7
 90
5
 70
1
 10
42.790600
 20
3.969600
 10
42.893800
 20
3.969600
 10
42.893800
 20
4.531600
 10
42.687400
 20
4.531600
 10
42.687400
 20
3.969600
  0
LWPOLYLINE
  8
0
 62
7
 90
5
 70
1
 10
42.790600
 20
6.839800
 10
42.893800
 20
6.839800
 10
42.893800
 20
7.630400
 10
42.687400
 20
7.630400
 10
42.687400
 20
6.839800
  0
LWPOLYLINE
  8
0
 62
7
 90
5
 70
1
 10
40.809400
 20
6.839800
 10
40.912600
 20
6.839800
 10
40.912600
 20
7.630400
 10
40.706200
 20
7.630400
 10
40.706200
 20
6.839800
  0
LWPOLYLINE
  8
0
 62
7
 90
5
 70
1
 10
41.469800
 20
6.839800
 10
41.573000
 20
6.839800
 10
41.573000
 20
7.630400
 10
41.366600
 20
7.630400
 10
41.366600
 20
6.839800
  0
LWPOLYLINE
  8
0
 62
7
 90
5
 70
1
 10
42.130200
 20
6.839800
 10
42.233400
 20
6.839800
 10
42.233400
 20
7.630400
 10
42.027000
 20
7.630400
 10
42.027000
 20
6.839800
  0
LWPOLYLINE
  8
0
 62
7
 90
5
 70
1
 10
32.550000
 20
4.325200
 10
33.567600
 20
4.325200
 10
33.567600
 20
5.852400
 10
31.532400
 20
5.852400
 10
31.532400
 20
4.325200
  0
LWPOLYLINE
  8
0
 62
7
 90
5
 70
1
 10
31.559400
 20
3.969600
 10
31.662600
 20
3.969600
 10
31.662600
 20
4.531600
 10
31.456200
 20
4.531600
 10
31.456200
 20
3.969600
  0
LWPOLYLINE
  8
0
 62
7
 90
5
 70
1
 10
32.219800
 20
3.969600
 10
32.323000
 20
3.969600
 10
32.323000
 20
4.531600
 10
32.116600
 20
4.531600
 10
32.116600
 20
3.969600
  0
LWPOLYLINE
  8
0
 62
7
 90
5
 70
1
 10
32.880200
 20
3.969600
 10
32.983400
 20
3.969600
 10
32.983400
 20
4.531600
 10
32.777000
 20
4.531600
 10
32.777000
 20
3.969600
  0
LWPOLYLINE
  8
0
 62
7
 90
5
 70
1
 10
33.540600
 20
3.969600
 10
33.643800
 20
3.969600
 10
33.643800
 20
4.531600
 10
33.437400
 20
4.531600
 10
33.437400
 20
3.969600
  0
LWPOLYLINE
  8
0
 62
7
 90
5
 70
1
 10
33.540600
 20
6.839800
 10
33.643800
 20
6.839800
 10
33.643800
 20
7.630400
 10
33.437400
 20
7.630400
 10
33.437400
 20
6.839800
  0
LWPOLYLINE
  8
0
 62
7
 90
5
 70
1
 10
31.559400
 20
6.839800
 10
31.662600
 20
6.839800
 10
31.662600
 20
7.630400
 10
31.456200
 20
7.630400
 10
31.456200
 20
6.839800
  0
LWPOLYLINE
  8
0
 62
7
 90
5
 70
1
 10
32.219800
 20
6.839800
 10
32.323000
 20
6.839800
 10
32.323000
 20
7.630400
 10
32.116600
 20
7.630400
 10
32.116600
 20
6.839800
  0
LWPOLYLINE
  8
0
 62
7
 90
5
 70
1
 10
32.880200
 20
6.839800
 10
32.983400
 20
6.839800
 10
32.983400
 20
7.630400
 10
32.777000
 20
7.630400
 10
32.777000
 20
6.839800
  0
LWPOLYLINE
  8
0
 62
7
 90
5
 70
1
 10
22.550000
 20
4.325200
 10
23.567600
 20
4.325200
 10
23.567600
 20
5.852400
 10
21.532400
 20
5.852400
 10
21.532400
 20
4.325200
  0
LWPOLYLINE
  8
0
 62
7
 90
5
 70
1
 10
21.559400
 20
3.969600
 10
21.662600
 20
3.969600
 10
21.662600
 20
4.531600
 10
21.456200
 20
4.531600
 10
21.456200
 20
3.969600
  0
LWPOLYLINE
  8
0
 62
7
 90
5
 70
1
 10
22.219800
 20
3.969600
 10
22.323000
 20
3.969600
 10
22.323000
 20
4.531600
 10
22.116600
 20
4.531600
 10
22.116600
 20
3.969600
  0
LWPOLYLINE
  8
0
 62
7
 90
5
 70
1
 10
22.880200
 20
3.969600
 10
22.983400
 20
3.969600
 10
22.983400
 20
4.531600
 10
22.777000
 20
4.531600
 10
22.777000
 20
3.969600
  0
LWPOLYLINE
  8
0
 62
7
 90
5
 70
1
 10
23.540600
 20
3.969600
 10
23.643800
 20
3.969600
 10
23.643800
 20
4.531600
 10
23.437400
 20
4.531600
 10
23.437400
 20
3.969600
  0
LWPOLYLINE
  8
0
 62
7
 90
5
 70
1
 10
23.540600
 20
6.839800
 10
23.643800
 20
6.839800
 10
23.643800
 20
7.630400
 10
23.437400
 20
7.630400
 10
23.437400
 20
6.839800
  0
LWPOLYLINE
  8
0
 62
7
 90
5
 70
1
 10
21.559400
 20
6.839800
 10
21.662600
 20
6.839800
 10
21.662600
 20
7.630400
 10
21.456200
 20
7.630400
 10
21.456200
 20
6.839800
  0
LWPOLYLINE
  8
0
 62
7
 90
5
 70
1
 10
22.219800
 20
6.839800
 10
22.323000
 20
6.839800
 10
22.323000
 20
7.630400
 10
22.116600
 20
7.630400
 10
22.116600
 20
6.839800
  0
LWPOLYLINE
  8
0
 62
7
 90
5
 70
1
 10
22.880200
 20
6.839800
 10
22.983400
 20
6.839800
 10
22.983400
 20
7.630400
 10
22.777000
 20
7.630400
 10
22.777000
 20
6.839800
  0
LWPOLYLINE
  8
0
 62
7
 90
5
 70
1
 10
66.050000
 20
4.900000
 10
65.700000
 20
4.900000
 10
65.700000
 20
4.400000
 10
66.400000
 20
4.400000
 10
66.400000
 20
4.900000
  0
LWPOLYLINE
  8
0
 62
7
 90
5
 70
1
 10
66.050000
 20
6.200000
 10
65.700000
 20
6.200000
 10
65.700000
 20
5.700000
 10
66.400000
 20
5.700000
 10
66.400000
 20
6.200000
  0
LWPOLYLINE
  8
0
 62
7
 90
5
 70
1
 10
46.550000
 20
6.450000
 10
47.200000
 20
6.450000
 10
47.200000
 20
7.550000
 10
45.900000
 20
7.550000
 10
45.900000
 20
6.450000
  0
LWPOLYLINE
  8
0
 62
7
 90
5
 70
1
 10
46.550000
 20
4.550000
 10
47.200000
 20
4.550000
 10
47.200000
 20
5.650000
 10
45.900000
 20
5.650000
 10
45.900000
 20
4.550000
  0
LWPOLYLINE
  8
0
 62
7
 90
5
 70
1
 10
49.050000
 20
6.450000
 10
49.700000
 20
6.450000
 10
49.700000
 20
7.550000
 10
48.400000
 20
7.550000
 10
48.400000
 20
6.450000
  0
LWPOLYLINE
  8
0
 62
7
 90
5
 70
1
 10
49.050000
 20
4.550000
 10
49.700000
 20
4.550000
 10
49.700000
 20
5.650000
 10
48.400000
 20
5.650000
 10
48.400000
 20
4.550000
  0
LWPOLYLINE
  8
0
 62
7
 90
5
 70
1
 10
36.300000
 20
6.200000
 10
36.950000
 20
6.200000
 10
36.950000
 20
7.300000
 10
35.650000
 20
7.300000
 10
35.650000
 20
6.200000
  0
LWPOLYLINE
  8
0
 62
7
 90
5
 70
1
 10
36.300000
 20
4.300000
 10
36.950000
 20
4.300000
 10
36.950000
 20
5.400000
 10
35.650000
 20
5.400000
 10
35.650000
 20
4.300000
  0
LWPOLYLINE
  8
0
 62
7
 90
5
 70
1
 10
38.800000
 20
6.200000
 10
39.450000
 20
6.200000
 10
39.450000
 20
7.300000
 10
38.150000
 20
7.300000
 10
38.150000
 20
6.200000
  0
LWPOLYLINE
  8
0
 62
7
 90
5
 70
1
 10
38.800000
 20
4.300000
 10
39.450000
 20
4.300000
 10
39.450000
 20
5.400000
 10
38.150000
 20
5.400000
 10
38.150000
 20
4.300000
  0
LWPOLYLINE
  8
0
 62
7
 90
5
 70
1
 10
26.050000
 20
6.200000
 10
26.700000
 20
6.200000
 10
26.700000
 20
7.300000
 10
25.400000
 20
7.300000
 10
25.400000
 20
6.200000
  0
LWPOLYLINE
  8
0
 62
7
 90
5
 70
1
 10
26.050000
 20
4.300000
 10
26.700000
 20
4.300000
 10
26.700000
 20
5.400000
 10
25.400000
 20
5.400000
 10
25.400000
 20
4.300000
  0
LWPOLYLINE
  8
0
 62
7
 90
5
 70
1
 10
28.800000
 20
6.200000
 10
29.450000
 20
6.200000
 10
29.450000
 20
7.300000
 10
28.150000
 20
7.300000
 10
28.150000
 20
6.200000
  0
LWPOLYLINE
  8
0
 62
7
 90
5
 70
1
 10
28.800000
 20
4.300000
 10
29.450000
 20
4.300000
 10
29.450000
 20
5.400000
 10
28.150000
 20
5.400000
 10
28.150000
 20
4.300000
  0
LWPOLYLINE
  8
0
 62
7
 90
5
 70
1
 10
16.050000
 20
6.450000
 10
16.700000
 20
6.450000
 10
16.700000
 20
7.550000
 10
15.400000
 20
7.550000
 10
15.400000
 20
6.450000
  0
LWPOLYLINE
  8
0
 62
7
 90
5
 70
1
 10
16.050000
 20
4.550000
 10
16.700000
 20
4.550000
 10
16.700000
 20
5.650000
 10
15.400000
 20
5.650000
 10
15.400000
 20
4.550000
  0
LWPOLYLINE
  8
0
 62
7
 90
5
 70
1
 10
18.800000
 20
6.450000
 10
19.450000
 20
6.450000
 10
19.450000
 20
7.550000
 10
18.150000
 20
7.550000
 10
18.150000
 20
6.450000
  0
LWPOLYLINE
  8
0
 62
7
 90
5
 70
1
 10
18.800000
 20
4.550000
 10
19.450000
 20
4.550000
 10
19.450000
 20
5.650000
 10
18.150000
 20
5.650000
 10
18.150000
 20
4.550000
  0
LWPOLYLINE
  8
0
 62
7
 90
5
 70
1
 10
86.050000
 20
43.450000
 10
86.400000
 20
43.450000
 10
86.400000
 20
43.950000
 10
85.700000
 20
43.950000
 10
85.700000
 20
43.450000
  0
LWPOLYLINE
  8
0
 62
7
 90
5
 70
1
 10
86.050000
 20
42.150000
 10
86.400000
 20
42.150000
 10
86.400000
 20
42.650000
 10
85.700000
 20
42.650000
 10
85.700000
 20
42.150000
  0
LWPOLYLINE
  8
0
 62
7
 90
5
 70
1
 10
76.300000
 20
43.450000
 10
76.650000
 20
43.450000
 10
76.650000
 20
43.950000
 10
75.950000
 20
43.950000
 10
75.950000
 20
43.450000
  0
LWPOLYLINE
  8
0
 62
7
 90
5
 70
1
 10
76.300000
 20
42.150000
 10
76.650000
 20
42.150000
 10
76.650000
 20
42.650000
 10
75.950000
 20
42.650000
 10
75.950000
 20
42.150000
  0
LWPOLYLINE
  8
0
 62
7
 90
5
 70
1
 10
22.425000
 20
24.400000
 10
22.075000
 20
24.400000
 10
22.075000
 20
23.900000
 10
22.775000
 20
23.900000
 10
22.775000
 20
24.400000
  0
LWPOLYLINE
  8
0
 62
7
 90
5
 70
1
 10
22.425000
 20
25.700000
 10
22.075000
 20
25.700000
 10
22.075000
 20
25.200000
 10
22.775000
 20
25.200000
 10
22.775000
 20
25.700000
  0
LWPOLYLINE
  8
0
 62
7
 90
5
 70
1
 10
35.675000
 20
21.700000
 10
36.025000
 20
21.700000
 10
36.025000
 20
22.200000
 10
35.325000
 20
22.200000
 10
35.325000
 20
21.700000
  0
LWPOLYLINE
  8
0
 62
7
 90
5
 70
1
 10
35.675000
 20
20.400000
 10
36.025000
 20
20.400000
 10
36.025000
 20
20.900000
 10
35.325000
 20
20.900000
 10
35.325000
 20
20.400000
  0
LWPOLYLINE
  8
0
 62
7
 90
5
 70
1
 10
28.425000
 20
24.400000
 10
28.075000
 20
24.400000
 10
28.075000
 20
23.900000
 10
28.775000
 20
23.900000
 10
28.775000
 20
24.400000
  0
LWPOLYLINE
  8
0
 62
7
 90
5
 70
1
 10
28.425000
 20
25.700000
 10
28.075000
 20
25.700000
 10
28.075000
 20
25.200000
 10
28.775000
 20
25.200000
 10
28.775000
 20
25.700000
  0
LWPOLYLINE
  8
0
 62
7
 90
5
 70
1
 10
29.550000
 20
21.700000
 10
29.900000
 20
21.700000
 10
29.900000
 20
22.200000
 10
29.200000
 20
22.200000
 10
29.200000
 20
21.700000
  0
LWPOLYLINE
  8
0
 62
7
 90
5
 70
1
 10
29.550000
 20
20.400000
 10
29.900000
 20
20.400000
 10
29.900000
 20
20.900000
 10
29.200000
 20
20.900000
 10
29.200000
 20
20.400000
  0
LWPOLYLINE
  8
0
 62
7
 90
5
 70
1
 10
34.425000
 20
24.400000
 10
34.075000
 20
24.400000
 10
34.075000
 20
23.900000
 10
34.775000
 20
23.900000
 10
34.775000
 20
24.400000
  0
LWPOLYLINE
  8
0
 62
7
 90
5
 70
1
 10
34.425000
 20
25.700000
 10
34.075000
 20
25.700000
 10
34.075000
 20
25.200000
 10
34.775000
 20
25.200000
 10
34.775000
 20
25.700000
  0
LWPOLYLINE
  8
0
 62
7
 90
5
 70
1
 10
23.675000
 20
21.700000
 10
24.025000
 20
21.700000
 10
24.025000
 20
22.200000
 10
23.325000
 20
22.200000
 10
23.325000
 20
21.700000
  0
LWPOLYLINE
  8
0
 62
7
 90
5
 70
1
 10
23.675000
 20
20.400000
 10
24.025000
 20
20.400000
 10
24.025000
 20
20.900000
 10
23.325000
 20
20.900000
 10
23.325000
 20
20.400000
  0
LWPOLYLINE
  8
0
 62
7
 90
5
 70
1
 10
35.800000
 20
25.200000
 10
36.150000
 20
25.200000
 10
36.150000
 20
25.700000
 10
35.450000
 20
25.700000
 10
35.450000
 20
25.200000
  0
LWPOLYLINE
  8
0
 62
7
 90
5
 70
1
 10
35.800000
 20
23.900000
 10
36.150000
 20
23.900000
 10
36.150000
 20
24.400000
 10
35.450000
 20
24.400000
 10
35.450000
 20
23.900000
  0
LWPOLYLINE
  8
0
 62
7
 90
5
 70
1
 10
17.800000
 20
21.700000
 10
18.150000
 20
21.700000
 10
18.150000
 20
22.200000
 10
17.450000
 20
22.200000
 10
17.450000
 20
21.700000
  0
LWPOLYLINE
  8
0
 62
7
 90
5
 70
1
 10
17.800000
 20
20.400000
 10
18.150000
 20
20.400000
 10
18.150000
 20
20.900000
 10
17.450000
 20
20.900000
 10
17.450000
 20
20.400000
  0
LWPOLYLINE
  8
0
 62
7
 90
5
 70
1
 10
42.300000
 20
26.250000
 10
41.700000
 20
26.250000
 10
41.700000
 20
25.350000
 10
42.900000
 20
25.350000
 10
42.900000
 20
26.250000
  0
LWPOLYLINE
  8
0
 62
7
 90
5
 70
1
 10
42.300000
 20
28.250000
 10
41.700000
 20
28.250000
 10
41.700000
 20
27.350000
 10
42.900000
 20
27.350000
 10
42.900000
 20
28.250000
  0
LWPOLYLINE
  8
0
 62
7
 90
5
 70
1
 10
59.725000
 20
31.925000
 10
59.725000
 20
31.325000
 10
60.625000
 20
31.325000
 10
60.625000
 20
32.525000
 10
59.725000
 20
32.525000
  0
LWPOLYLINE
  8
0
 62
7
 90
5
 70
1
 10
57.725000
 20
31.925000
 10
57.725000
 20
31.325000
 10
58.625000
 20
31.325000
 10
58.625000
 20
32.525000
 10
57.725000
 20
32.525000
  0
LWPOLYLINE
  8
0
 62
7
 90
5
 70
1
 10
79.200000
 20
3.800000
 10
79.200000
 20
3.150000
 10
80.300000
 20
3.150000
 10
80.300000
 20
4.450000
 10
79.200000
 20
4.450000
  0
LWPOLYLINE
  8
0
 62
7
 90
5
 70
1
 10
77.300000
 20
3.800000
 10
77.300000
 20
3.150000
 10
78.400000
 20
3.150000
 10
78.400000
 20
4.450000
 10
77.300000
 20
4.450000
  0
LWPOLYLINE
  8
0
 62
7
 90
5
 70
1
 10
79.200000
 20
2.050000
 10
79.200000
 20
1.400000
 10
80.300000
 20
1.400000
 10
80.300000
 20
2.700000
 10
79.200000
 20
2.700000
  0
LWPOLYLINE
  8
0
 62
7
 90
5
 70
1
 10
77.300000
 20
2.050000
 10
77.300000
 20
1.400000
 10
78.400000
 20
1.400000
 10
78.400000
 20
2.700000
 10
77.300000
 20
2.700000
  0
LWPOLYLINE
  8
0
 62
7
 90
5
 70
1
 10
27.450000
 20
37.050000
 10
27.450000
 20
36.400000
 10
28.550000
 20
36.400000
 10
28.550000
 20
37.700000
 10
27.450000
 20
37.700000
  0
LWPOLYLINE
  8
0
 62
7
 90
5
 70
1
 10
25.550000
 20
37.050000
 10
25.550000
 20
36.400000
 10
26.650000
 20
36.400000
 10
26.650000
 20
37.700000
 10
25.550000
 20
37.700000
  0
LWPOLYLINE
  8
0
 62
7
 90
5
 70
1
 10
60.100000
 20
38.100000
 10
60.100000
 20
37.800000
 10
60.400000
 20
37.800000
 10
60.400000
 20
38.400000
 10
60.100000
 20
38.400000
  0
LWPOLYLINE
  8
0
 62
7
 90
5
 70
1
 10
60.100000
 20
36.500000
 10
60.100000
 20
36.200000
 10
60.400000
 20
36.200000
 10
60.400000
 20
36.800000
 10
60.100000
 20
36.800000
  0
LWPOLYLINE
  8
0
 62
7
 90
5
 70
1
 10
59.300000
 20
38.100000
 10
59.300000
 20
37.800000
 10
59.600000
 20
37.800000
 10
59.600000
 20
38.400000
 10
59.300000
 20
38.400000
  0
LWPOLYLINE
  8
0
 62
7
 90
5
 70
1
 10
59.300000
 20
36.500000
 10
59.300000
 20
36.200000
 10
59.600000
 20
36.200000
 10
59.600000
 20
36.800000
 10
59.300000
 20
36.800000
  0
LWPOLYLINE
  8
0
 62
7
 90
5
 70
1
 10
58.500000
 20
38.100000
 10
58.500000
 20
37.800000
 10
58.800000
 20
37.800000
 10
58.800000
 20
38.400000
 10
58.500000
 20
38.400000
  0
LWPOLYLINE
  8
0
 62
7
 90
5
 70
1
 10
58.500000
 20
36.500000
 10
58.500000
 20
36.200000
 10
58.800000
 20
36.200000
 10
58.800000
 20
36.800000
 10
58.500000
 20
36.800000
  0
LWPOLYLINE
  8
0
 62
7
 90
5
 70
1
 10
57.700000
 20
38.100000
 10
57.700000
 20
37.800000
 10
58.000000
 20
37.800000
 10
58.000000
 20
38.400000
 10
57.700000
 20
38.400000
  0
LWPOLYLINE
  8
0
 62
7
 90
5
 70
1
 10
57.700000
 20
36.500000
 10
57.700000
 20
36.200000
 10
58.000000
 20
36.200000
 10
58.000000
 20
36.800000
 10
57.700000
 20
36.800000
  0
LWPOLYLINE
  8
0
 62
7
 90
5
 70
1
 10
40.100000
 20
38.100000
 10
40.100000
 20
37.800000
 10
40.400000
 20
37.800000
 10
40.400000
 20
38.400000
 10
40.100000
 20
38.400000
  0
LWPOLYLINE
  8
0
 62
7
 90
5
 70
1
 10
40.100000
 20
36.500000
 10
40.100000
 20
36.200000
 10
40.400000
 20
36.200000
 10
40.400000
 20
36.800000
 10
40.100000
 20
36.800000
  0
LWPOLYLINE
  8
0
 62
7
 90
5
 70
1
 10
39.300000
 20
38.100000
 10
39.300000
 20
37.800000
 10
39.600000
 20
37.800000
 10
39.600000
 20
38.400000
 10
39.300000
 20
38.400000
  0
LWPOLYLINE
  8
0
 62
7
 90
5
 70
1
 10
39.300000
 20
36.500000
 10
39.300000
 20
36.200000
 10
39.600000
 20
36.200000
 10
39.600000
 20
36.800000
 10
39.300000
 20
36.800000
  0
LWPOLYLINE
  8
0
 62
7
 90
5
 70
1
 10
38.500000
 20
38.100000
 10
38.500000
 20
37.800000
 10
38.800000
 20
37.800000
 10
38.800000
 20
38.400000
 10
38.500000
 20
38.400000
  0
LWPOLYLINE
  8
0
 62
7
 90
5
 70
1
 10
38.500000
 20
36.500000
 10
38.500000
 20
36.200000
 10
38.800000
 20
36.200000
 10
38.800000
 20
36.800000
 10
38.500000
 20
36.800000
  0
LWPOLYLINE
  8
0
 62
7
 90
5
 70
1
 10
37.700000
 20
38.100000
 10
37.700000
 20
37.800000
 10
38.000000
 20
37.800000
 10
38.000000
 20
38.400000
 10
37.700000
 20
38.400000
  0
LWPOLYLINE
  8
0
 62
7
 90
5
 70
1
 10
37.700000
 20
36.500000
 10
37.700000
 20
36.200000
 10
38.000000
 20
36.200000
 10
38.000000
 20
36.800000
 10
37.700000
 20
36.800000
  0
LWPOLYLINE
  8
0
 62
7
 90
5
 70
1
 10
55.850000
 20
40.250000
 10
55.550000
 20
40.250000
 10
55.550000
 20
39.950000
 10
56.150000
 20
39.950000
 10
56.150000
 20
40.250000
  0
LWPOLYLINE
  8
0
 62
7
 90
5
 70
1
 10
54.250000
 20
40.250000
 10
53.950000
 20
40.250000
 10
53.950000
 20
39.950000
 10
54.550000
 20
39.950000
 10
54.550000
 20
40.250000
  0
LWPOLYLINE
  8
0
 62
7
 90
5
 70
1
 10
55.850000
 20
41.050000
 10
55.550000
 20
41.050000
 10
55.550000
 20
40.750000
 10
56.150000
 20
40.750000
 10
56.150000
 20
41.050000
  0
LWPOLYLINE
  8
0
 62
7
 90
5
 70
1
 10
54.250000
 20
41.050000
 10
53.950000
 20
41.050000
 10
53.950000
 20
40.750000
 10
54.550000
 20
40.750000
 10
54.550000
 20
41.050000
  0
LWPOLYLINE
  8
0
 62
7
 90
5
 70
1
 10
55.850000
 20
41.850000
 10
55.550000
 20
41.850000
 10
55.550000
 20
41.550000
 10
56.150000
 20
41.550000
 10
56.150000
 20
41.850000
  0
LWPOLYLINE
  8
0
 62
7
 90
5
 70
1
 10
54.250000
 20
41.850000
 10
53.950000
 20
41.850000
 10
53.950000
 20
41.550000
 10
54.550000
 20
41.550000
 10
54.550000
 20
41.850000
  0
LWPOLYLINE
  8
0
 62
7
 90
5
 70
1
 10
55.850000
 20
42.650000
 10
55.550000
 20
42.650000
 10
55.550000
 20
42.350000
 10
56.150000
 20
42.350000
 10
56.150000
 20
42.650000
  0
LWPOLYLINE
  8
0
 62
7
 90
5
 70
1
 10
54.250000
 20
42.650000
 10
53.950000
 20
42.650000
 10
53.950000
 20
42.350000
 10
54.550000
 20
42.350000
 10
54.550000
 20
42.650000
  0
LWPOLYLINE
  8
0
 62
7
 90
5
 70
1
 10
34.850000
 20
40.250000
 10
34.550000
 20
40.250000
 10
34.550000
 20
39.950000
 10
35.150000
 20
39.950000
 10
35.150000
 20
40.250000
  0
LWPOLYLINE
  8
0
 62
7
 90
5
 70
1
 10
33.250000
 20
40.250000
 10
32.950000
 20
40.250000
 10
32.950000
 20
39.950000
 10
33.550000
 20
39.950000
 10
33.550000
 20
40.250000
  0
LWPOLYLINE
  8
0
 62
7
 90
5
 70
1
 10
34.850000
 20
41.050000
 10
34.550000
 20
41.050000
 10
34.550000
 20
40.750000
 10
35.150000
 20
40.750000
 10
35.150000
 20
41.050000
  0
LWPOLYLINE
  8
0
 62
7
 90
5
 70
1
 10
33.250000
 20
41.050000
 10
32.950000
 20
41.050000
 10
32.950000
 20
40.750000
 10
33.550000
 20
40.750000
 10
33.550000
 20
41.050000
  0
LWPOLYLINE
  8
0
 62
7
 90
5
 70
1
 10
34.850000
 20
41.850000
 10
34.550000
 20
41.850000
 10
34.550000
 20
41.550000
 10
35.150000
 20
41.550000
 10
35.150000
 20
41.850000
  0
LWPOLYLINE
  8
0
 62
7
 90
5
 70
1
 10
33.250000
 20
41.850000
 10
32.950000
 20
41.850000
 10
32.950000
 20
41.550000
 10
33.550000
 20
41.550000
 10
33.550000
 20
41.850000
  0
LWPOLYLINE
  8
0
 62
7
 90
5
 70
1
 10
34.850000
 20
42.650000
 10
34.550000
 20
42.650000
 10
34.550000
 20
42.350000
 10
35.150000
 20
42.350000
 10
35.150000
 20
42.650000
  0
LWPOLYLINE
  8
0
 62
7
 90
5
 70
1
 10
33.250000
 20
42.650000
 10
32.950000
 20
42.650000
 10
32.950000
 20
42.350000
 10
33.550000
 20
42.350000
 10
33.550000
 20
42.650000
  0
LWPOLYLINE
  8
0
 62
7
 90
5
 70
1
 10
30.475000
 20
28.225000
 10
30.475000
 20
27.925000
 10
30.775000
 20
27.925000
 10
30.775000
 20
28.525000
 10
30.475000
 20
28.525000
  0
LWPOLYLINE
  8
0
 62
7
 90
5
 70
1
 10
30.475000
 20
26.625000
 10
30.475000
 20
26.325000
 10
30.775000
 20
26.325000
 10
30.775000
 20
26.925000
 10
30.475000
 20
26.925000
  0
LWPOLYLINE
  8
0
 62
7
 90
5
 70
1
 10
29.675000
 20
28.225000
 10
29.675000
 20
27.925000
 10
29.975000
 20
27.925000
 10
29.975000
 20
28.525000
 10
29.675000
 20
28.525000
  0
LWPOLYLINE
  8
0
 62
7
 90
5
 70
1
 10
29.675000
 20
26.625000
 10
29.675000
 20
26.325000
 10
29.975000
 20
26.325000
 10
29.975000
 20
26.925000
 10
29.675000
 20
26.925000
  0
LWPOLYLINE
  8
0
 62
7
 90
5
 70
1
 10
28.875000
 20
28.225000
 10
28.875000
 20
27.925000
 10
29.175000
 20
27.925000
 10
29.175000
 20
28.525000
 10
28.875000
 20
28.525000
  0
LWPOLYLINE
  8
0
 62
7
 90
5
 70
1
 10
28.875000
 20
26.625000
 10
28.875000
 20
26.325000
 10
29.175000
 20
26.325000
 10
29.175000
 20
26.925000
 10
28.875000
 20
26.925000
  0
LWPOLYLINE
  8
0
 62
7
 90
5
 70
1
 10
28.075000
 20
28.225000
 10
28.075000
 20
27.925000
 10
28.375000
 20
27.925000
 10
28.375000
 20
28.525000
 10
28.075000
 20
28.525000
  0
LWPOLYLINE
  8
0
 62
7
 90
5
 70
1
 10
28.075000
 20
26.625000
 10
28.075000
 20
26.325000
 10
28.375000
 20
26.325000
 10
28.375000
 20
26.925000
 10
28.075000
 20
26.925000
  0
LWPOLYLINE
  8
0
 62
7
 90
5
 70
1
 10
26.100000
 20
32.600000
 10
26.100000
 20
32.300000
 10
26.400000
 20
32.300000
 10
26.400000
 20
32.900000
 10
26.100000
 20
32.900000
  0
LWPOLYLINE
  8
0
 62
7
 90
5
 70
1
 10
26.100000
 20
31.000000
 10
26.100000
 20
30.700000
 10
26.400000
 20
30.700000
 10
26.400000
 20
31.300000
 10
26.100000
 20
31.300000
  0
LWPOLYLINE
  8
0
 62
7
 90
5
 70
1
 10
25.300000
 20
32.600000
 10
25.300000
 20
32.300000
 10
25.600000
 20
32.300000
 10
25.600000
 20
32.900000
 10
25.300000
 20
32.900000
  0
LWPOLYLINE
  8
0
 62
7
 90
5
 70
1
 10
25.300000
 20
31.000000
 10
25.300000
 20
30.700000
 10
25.600000
 20
30.700000
 10
25.600000
 20
31.300000
 10
25.300000
 20
31.300000
  0
LWPOLYLINE
  8
0
 62
7
 90
5
 70
1
 10
24.500000
 20
32.600000
 10
24.500000
 20
32.300000
 10
24.800000
 20
32.300000
 10
24.800000
 20
32.900000
 10
24.500000
 20
32.900000
  0
LWPOLYLINE
  8
0
 62
7
 90
5
 70
1
 10
24.500000
 20
31.000000
 10
24.500000
 20
30.700000
 10
24.800000
 20
30.700000
 10
24.800000
 20
31.300000
 10
24.500000
 20
31.300000
  0
LWPOLYLINE
  8
0
 62
7
 90
5
 70
1
 10
23.700000
 20
32.600000
 10
23.700000
 20
32.300000
 10
24.000000
 20
32.300000
 10
24.000000
 20
32.900000
 10
23.700000
 20
32.900000
  0
LWPOLYLINE
  8
0
 62
7
 90
5
 70
1
 10
23.700000
 20
31.000000
 10
23.700000
 20
30.700000
 10
24.000000
 20
30.700000
 10
24.000000
 20
31.300000
 10
23.700000
 20
31.300000
  0
LWPOLYLINE
  8
0
 62
7
 90
5
 70
1
 10
28.000000
 20
17.875000
 10
28.000000
 20
18.175000
 10
27.700000
 20
18.175000
 10
27.700000
 20
17.575000
 10
28.000000
 20
17.575000
  0
LWPOLYLINE
  8
0
 62
7
 90
5
 70
1
 10
28.000000
 20
19.475000
 10
28.000000
 20
19.775000
 10
27.700000
 20
19.775000
 10
27.700000
 20
19.175000
 10
28.000000
 20
19.175000
  0
LWPOLYLINE
  8
0
 62
7
 90
5
 70
1
 10
28.800000
 20
17.875000
 10
28.800000
 20
18.175000
 10
28.500000
 20
18.175000
 10
28.500000
 20
17.575000
 10
28.800000
 20
17.575000
  0
LWPOLYLINE
  8
0
 62
7
 90
5
 70
1
 10
28.800000
 20
19.475000
 10
28.800000
 20
19.775000
 10
28.500000
 20
19.775000
 10
28.500000
 20
19.175000
 10
28.800000
 20
19.175000
  0
LWPOLYLINE
  8
0
 62
7
 90
5
 70
1
 10
29.600000
 20
17.875000
 10
29.600000
 20
18.175000
 10
29.300000
 20
18.175000
 10
29.300000
 20
17.575000
 10
29.600000
 20
17.575000
  0
LWPOLYLINE
  8
0
 62
7
 90
5
 70
1
 10
29.600000
 20
19.475000
 10
29.600000
 20
19.775000
 10
29.300000
 20
19.775000
 10
29.300000
 20
19.175000
 10
29.600000
 20
19.175000
  0
LWPOLYLINE
  8
0
 62
7
 90
5
 70
1
 10
30.400000
 20
17.875000
 10
30.400000
 20
18.175000
 10
30.100000
 20
18.175000
 10
30.100000
 20
17.575000
 10
30.400000
 20
17.575000
  0
LWPOLYLINE
  8
0
 62
7
 90
5
 70
1
 10
30.400000
 20
19.475000
 10
30.400000
 20
19.775000
 10
30.100000
 20
19.775000
 10
30.100000
 20
19.175000
 10
30.400000
 20
19.175000
  0
LWPOLYLINE
  8
0
 62
7
 90
5
 70
1
 10
64.100000
 20
50.100000
 10
64.100000
 20
49.800000
 10
64.400000
 20
49.800000
 10
64.400000
 20
50.400000
 10
64.100000
 20
50.400000
  0
LWPOLYLINE
  8
0
 62
7
 90
5
 70
1
 10
64.100000
 20
48.500000
 10
64.100000
 20
48.200000
 10
64.400000
 20
48.200000
 10
64.400000
 20
48.800000
 10
64.100000
 20
48.800000
  0
LWPOLYLINE
  8
0
 62
7
 90
5
 70
1
 10
63.300000
 20
50.100000
 10
63.300000
 20
49.800000
 10
63.600000
 20
49.800000
 10
63.600000
 20
50.400000
 10
63.300000
 20
50.400000
  0
LWPOLYLINE
  8
0
 62
7
 90
5
 70
1
 10
63.300000
 20
48.500000
 10
63.300000
 20
48.200000
 10
63.600000
 20
48.200000
 10
63.600000
 20
48.800000
 10
63.300000
 20
48.800000
  0
LWPOLYLINE
  8
0
 62
7
 90
5
 70
1
 10
62.500000
 20
50.100000
 10
62.500000
 20
49.800000
 10
62.800000
 20
49.800000
 10
62.800000
 20
50.400000
 10
62.500000
 20
50.400000
  0
LWPOLYLINE
  8
0
 62
7
 90
5
 70
1
 10
62.500000
 20
48.500000
 10
62.500000
 20
48.200000
 10
62.800000
 20
48.200000
 10
62.800000
 20
48.800000
 10
62.500000
 20
48.800000
  0
LWPOLYLINE
  8
0
 62
7
 90
5
 70
1
 10
61.700000
 20
50.100000
 10
61.700000
 20
49.800000
 10
62.000000
 20
49.800000
 10
62.000000
 20
50.400000
 10
61.700000
 20
50.400000
  0
LWPOLYLINE
  8
0
 62
7
 90
5
 70
1
 10
61.700000
 20
48.500000
 10
61.700000
 20
48.200000
 10
62.000000
 20
48.200000
 10
62.000000
 20
48.800000
 10
61.700000
 20
48.800000
  0
LWPOLYLINE
  8
0
 62
7
 90
5
 70
1
 10
56.100000
 20
50.100000
 10
56.100000
 20
49.800000
 10
56.400000
 20
49.800000
 10
56.400000
 20
50.400000
 10
56.100000
 20
50.400000
  0
LWPOLYLINE
  8
0
 62
7
 90
5
 70
1
 10
56.100000
 20
48.500000
 10
56.100000
 20
48.200000
 10
56.400000
 20
48.200000
 10
56.400000
 20
48.800000
 10
56.100000
 20
48.800000
  0
LWPOLYLINE
  8
0
 62
7
 90
5
 70
1
 10
55.300000
 20
50.100000
 10
55.300000
 20
49.800000
 10
55.600000
 20
49.800000
 10
55.600000
 20
50.400000
 10
55.300000
 20
50.400000
  0
LWPOLYLINE
  8
0
 62
7
 90
5
 70
1
 10
55.300000
 20
48.500000
 10
55.300000
 20
48.200000
 10
55.600000
 20
48.200000
 10
55.600000
 20
48.800000
 10
55.300000
 20
48.800000
  0
LWPOLYLINE
  8
0
 62
7
 90
5
 70
1
 10
54.500000
 20
50.100000
 10
54.500000
 20
49.800000
 10
54.800000
 20
49.800000
 10
54.800000
 20
50.400000
 10
54.500000
 20
50.400000
  0
LWPOLYLINE
  8
0
 62
7
 90
5
 70
1
 10
54.500000
 20
48.500000
 10
54.500000
 20
48.200000
 10
54.800000
 20
48.200000
 10
54.800000
 20
48.800000
 10
54.500000
 20
48.800000
  0
LWPOLYLINE
  8
0
 62
7
 90
5
 70
1
 10
53.700000
 20
50.100000
 10
53.700000
 20
49.800000
 10
54.000000
 20
49.800000
 10
54.000000
 20
50.400000
 10
53.700000
 20
50.400000
  0
LWPOLYLINE
  8
0
 62
7
 90
5
 70
1
 10
53.700000
 20
48.500000
 10
53.700000
 20
48.200000
 10
54.000000
 20
48.200000
 10
54.000000
 20
48.800000
 10
53.700000
 20
48.800000
  0
LWPOLYLINE
  8
0
 62
7
 90
5
 70
1
 10
43.600000
 20
50.100000
 10
43.600000
 20
49.800000
 10
43.900000
 20
49.800000
 10
43.900000
 20
50.400000
 10
43.600000
 20
50.400000
  0
LWPOLYLINE
  8
0
 62
7
 90
5
 70
1
 10
43.600000
 20
48.500000
 10
43.600000
 20
48.200000
 10
43.900000
 20
48.200000
 10
43.900000
 20
48.800000
 10
43.600000
 20
48.800000
  0
LWPOLYLINE
  8
0
 62
7
 90
5
 70
1
 10
42.800000
 20
50.100000
 10
42.800000
 20
49.800000
 10
43.100000
 20
49.800000
 10
43.100000
 20
50.400000
 10
42.800000
 20
50.400000
  0
LWPOLYLINE
  8
0
 62
7
 90
5
 70
1
 10
42.800000
 20
48.500000
 10
42.800000
 20
48.200000
 10
43.100000
 20
48.200000
 10
43.100000
 20
48.800000
 10
42.800000
 20
48.800000
  0
LWPOLYLINE
  8
0
 62
7
 90
5
 70
1
 10
42.000000
 20
50.100000
 10
42.000000
 20
49.800000
 10
42.300000
 20
49.800000
 10
42.300000
 20
50.400000
 10
42.000000
 20
50.400000
  0
LWPOLYLINE
  8
0
 62
7
 90
5
 70
1
 10
42.000000
 20
48.500000
 10
42.000000
 20
48.200000
 10
42.300000
 20
48.200000
 10
42.300000
 20
48.800000
 10
42.000000
 20
48.800000
  0
LWPOLYLINE
  8
0
 62
7
 90
5
 70
1
 10
41.200000
 20
50.100000
 10
41.200000
 20
49.800000
 10
41.500000
 20
49.800000
 10
41.500000
 20
50.400000
 10
41.200000
 20
50.400000
  0
LWPOLYLINE
  8
0
 62
7
 90
5
 70
1
 10
41.200000
 20
48.500000
 10
41.200000
 20
48.200000
 10
41.500000
 20
48.200000
 10
41.500000
 20
48.800000
 10
41.200000
 20
48.800000
  0
LWPOLYLINE
  8
0
 62
7
 90
5
 70
1
 10
35.100000
 20
50.100000
 10
35.100000
 20
49.800000
 10
35.400000
 20
49.800000
 10
35.400000
 20
50.400000
 10
35.100000
 20
50.400000
  0
LWPOLYLINE
  8
0
 62
7
 90
5
 70
1
 10
35.100000
 20
48.500000
 10
35.100000
 20
48.200000
 10
35.400000
 20
48.200000
 10
35.400000
 20
48.800000
 10
35.100000
 20
48.800000
  0
LWPOLYLINE
  8
0
 62
7
 90
5
 70
1
 10
34.300000
 20
50.100000
 10
34.300000
 20
49.800000
 10
34.600000
 20
49.800000
 10
34.600000
 20
50.400000
 10
34.300000
 20
50.400000
  0
LWPOLYLINE
  8
0
 62
7
 90
5
 70
1
 10
34.300000
 20
48.500000
 10
34.300000
 20
48.200000
 10
34.600000
 20
48.200000
 10
34.600000
 20
48.800000
 10
34.300000
 20
48.800000
  0
LWPOLYLINE
  8
0
 62
7
 90
5
 70
1
 10
33.500000
 20
50.100000
 10
33.500000
 20
49.800000
 10
33.800000
 20
49.800000
 10
33.800000
 20
50.400000
 10
33.500000
 20
50.400000
  0
LWPOLYLINE
  8
0
 62
7
 90
5
 70
1
 10
33.500000
 20
48.500000
 10
33.500000
 20
48.200000
 10
33.800000
 20
48.200000
 10
33.800000
 20
48.800000
 10
33.500000
 20
48.800000
  0
LWPOLYLINE
  8
0
 62
7
 90
5
 70
1
 10
32.700000
 20
50.100000
 10
32.700000
 20
49.800000
 10
33.000000
 20
49.800000
 10
33.000000
 20
50.400000
 10
32.700000
 20
50.400000
  0
LWPOLYLINE
  8
0
 62
7
 90
5
 70
1
 10
32.700000
 20
48.500000
 10
32.700000
 20
48.200000
 10
33.000000
 20
48.200000
 10
33.000000
 20
48.800000
 10
32.700000
 20
48.800000
  0
LWPOLYLINE
  8
0
 62
7
 90
5
 70
1
 10
20.600000
 20
24.325000
 10
20.600000
 20
23.725000
 10
21.400000
 20
23.725000
 10
21.400000
 20
24.925000
 10
20.600000
 20
24.925000
  0
LWPOLYLINE
  8
0
 62
7
 90
5
 70
1
 10
19.650000
 20
26.525000
 10
19.650000
 20
25.925000
 10
20.450000
 20
25.925000
 10
20.450000
 20
27.125000
 10
19.650000
 20
27.125000
  0
LWPOLYLINE
  8
0
 62
7
 90
5
 70
1
 10
18.700000
 20
24.325000
 10
18.700000
 20
23.725000
 10
19.500000
 20
23.725000
 10
19.500000
 20
24.925000
 10
18.700000
 20
24.925000
  0
LWPOLYLINE
  8
0
 62
7
 90
5
 70
1
 10
37.500000
 20
21.775000
 10
37.500000
 20
22.375000
 10
36.700000
 20
22.375000
 10
36.700000
 20
21.175000
 10
37.500000
 20
21.175000
  0
LWPOLYLINE
  8
0
 62
7
 90
5
 70
1
 10
38.450000
 20
19.575000
 10
38.450000
 20
20.175000
 10
37.650000
 20
20.175000
 10
37.650000
 20
18.975000
 10
38.450000
 20
18.975000
  0
LWPOLYLINE
  8
0
 62
7
 90
5
 70
1
 10
39.400000
 20
21.775000
 10
39.400000
 20
22.375000
 10
38.600000
 20
22.375000
 10
38.600000
 20
21.175000
 10
39.400000
 20
21.175000
  0
LWPOLYLINE
  8
0
 62
7
 90
5
 70
1
 10
26.600000
 20
24.325000
 10
26.600000
 20
23.725000
 10
27.400000
 20
23.725000
 10
27.400000
 20
24.925000
 10
26.600000
 20
24.925000
  0
LWPOLYLINE
  8
0
 62
7
 90
5
 70
1
 10
25.650000
 20
26.525000
 10
25.650000
 20
25.925000
 10
26.450000
 20
25.925000
 10
26.450000
 20
27.125000
 10
25.650000
 20
27.125000
  0
LWPOLYLINE
  8
0
 62
7
 90
5
 70
1
 10
24.700000
 20
24.325000
 10
24.700000
 20
23.725000
 10
25.500000
 20
23.725000
 10
25.500000
 20
24.925000
 10
24.700000
 20
24.925000
  0
LWPOLYLINE
  8
0
 62
7
 90
5
 70
1
 10
31.500000
 20
21.775000
 10
31.500000
 20
22.375000
 10
30.700000
 20
22.375000
 10
30.700000
 20
21.175000
 10
31.500000
 20
21.175000
  0
LWPOLYLINE
  8
0
 62
7
 90
5
 70
1
 10
32.450000
 20
19.575000
 10
32.450000
 20
20.175000
 10
31.650000
 20
20.175000
 10
31.650000
 20
18.975000
 10
32.450000
 20
18.975000
  0
LWPOLYLINE
  8
0
 62
7
 90
5
 70
1
 10
33.400000
 20
21.775000
 10
33.400000
 20
22.375000
 10
32.600000
 20
22.375000
 10
32.600000
 20
21.175000
 10
33.400000
 20
21.175000
  0
LWPOLYLINE
  8
0
 62
7
 90
5
 70
1
 10
32.600000
 20
24.325000
 10
32.600000
 20
23.725000
 10
33.400000
 20
23.725000
 10
33.400000
 20
24.925000
 10
32.600000
 20
24.925000
  0
LWPOLYLINE
  8
0
 62
7
 90
5
 70
1
 10
31.650000
 20
26.525000
 10
31.650000
 20
25.925000
 10
32.450000
 20
25.925000
 10
32.450000
 20
27.125000
 10
31.650000
 20
27.125000
  0
LWPOLYLINE
  8
0
 62
7
 90
5
 70
1
 10
30.700000
 20
24.325000
 10
30.700000
 20
23.725000
 10
31.500000
 20
23.725000
 10
31.500000
 20
24.925000
 10
30.700000
 20
24.925000
  0
LWPOLYLINE
  8
0
 62
7
 90
5
 70
1
 10
25.500000
 20
21.775000
 10
25.500000
 20
22.375000
 10
24.700000
 20
22.375000
 10
24.700000
 20
21.175000
 10
25.500000
 20
21.175000
  0
LWPOLYLINE
  8
0
 62
7
 90
5
 70
1
 10
26.450000
 20
19.575000
 10
26.450000
 20
20.175000
 10
25.650000
 20
20.175000
 10
25.650000
 20
18.975000
 10
26.450000
 20
18.975000
  0
LWPOLYLINE
  8
0
 62
7
 90
5
 70
1
 10
27.400000
 20
21.775000
 10
27.400000
 20
22.375000
 10
26.600000
 20
22.375000
 10
26.600000
 20
21.175000
 10
27.400000
 20
21.175000
  0
LWPOLYLINE
  8
0
 62
7
 90
5
 70
1
 10
38.600000
 20
24.325000
 10
38.600000
 20
23.725000
 10
39.400000
 20
23.725000
 10
39.400000
 20
24.925000
 10
38.600000
 20
24.925000
  0
LWPOLYLINE
  8
0
 62
7
 90
5
 70
1
 10
37.650000
 20
26.525000
 10
37.650000
 20
25.925000
 10
38.450000
 20
25.925000
 10
38.450000
 20
27.125000
 10
37.650000
 20
27.125000
  0
LWPOLYLINE
  8
0
 62
7
 90
5
 70
1
 10
36.700000
 20
24.325000
 10
36.700000
 20
23.725000
 10
37.500000
 20
23.725000
 10
37.500000
 20
24.925000
 10
36.700000
 20
24.925000
  0
LWPOLYLINE
  8
0
 62
7
 90
5
 70
1
 10
19.500000
 20
21.775000
 10
19.500000
 20
22.375000
 10
18.700000
 20
22.375000
 10
18.700000
 20
21.175000
 10
19.500000
 20
21.175000
  0
LWPOLYLINE
  8
0
 62
7
 90
5
 70
1
 10
20.450000
 20
19.575000
 10
20.450000
 20
20.175000
 10
19.650000
 20
20.175000
 10
19.650000
 20
18.975000
 10
20.450000
 20
18.975000
  0
LWPOLYLINE
  8
0
 62
7
 90
5
 70
1
 10
21.400000
 20
21.775000
 10
21.400000
 20
22.375000
 10
20.600000
 20
22.375000
 10
20.600000
 20
21.175000
 10
21.400000
 20
21.175000
  0
LWPOLYLINE
  8
0
 62
7
 90
5
 70
1
 10
48.050000
 20
21.375000
 10
48.902500
 20
21.375000
 10
48.902500
 20
21.625000
 10
47.197500
 20
21.625000
 10
47.197500
 20
21.375000
  0
LWPOLYLINE
  8
0
 62
7
 90
5
 70
1
 10
48.050000
 20
20.175000
 10
48.902500
 20
20.175000
 10
48.902500
 20
20.425000
 10
47.197500
 20
20.425000
 10
47.197500
 20
20.175000
  0
LWPOLYLINE
  8
0
 62
7
 90
5
 70
1
 10
48.050000
 20
18.975000
 10
48.902500
 20
18.975000
 10
48.902500
 20
19.225000
 10
47.197500
 20
19.225000
 10
47.197500
 20
18.975000
  0
ENDSEC
  0
EOF
