  0
SECTION
  2
HEADER
  9
$ACADVER
  1
AC1009
  9
$MEASUREMENT
 70
     1
  0
ENDSEC
  0
SECTION
  2
ENTITIES
  0
LWPOLYLINE
  8
0
 62
7
 90
5
 70
1
 10
89.425000
 20
-1.025000
 10
90.125000
 20
-1.025000
 10
90.125000
 20
2.775000
 10
88.725000
 20
2.775000
 10
88.725000
 20
-1.025000
  0
LWPOLYLINE
  8
0
 62
7
 90
5
 70
1
 10
89.425000
 20
5.075000
 10
90.125000
 20
5.075000
 10
90.125000
 20
8.875000
 10
88.725000
 20
8.875000
 10
88.725000
 20
5.075000
  0
LWPOLYLINE
  8
0
 62
7
 90
5
 70
1
 10
84.500000
 20
8.300000
 10
84.500000
 20
9.000000
 10
80.700000
 20
9.000000
 10
80.700000
 20
7.600000
 10
84.500000
 20
7.600000
  0
LWPOLYLINE
  8
0
 62
7
 90
5
 70
1
 10
78.400000
 20
8.300000
 10
78.400000
 20
9.000000
 10
74.600000
 20
9.000000
 10
74.600000
 20
7.600000
 10
78.400000
 20
7.600000
  0
LWPOLYLINE
  8
0
 62
7
 90
5
 70
1
 10
12.550000
 20
30.075000
 10
13.200000
 20
30.075000
 10
13.200000
 20
31.175000
 10
11.900000
 20
31.175000
 10
11.900000
 20
30.075000
  0
LWPOLYLINE
  8
0
 62
7
 90
5
 70
1
 10
12.550000
 20
28.175000
 10
13.200000
 20
28.175000
 10
13.200000
 20
29.275000
 10
11.900000
 20
29.275000
 10
11.900000
 20
28.175000
  0
LWPOLYLINE
  8
0
 62
7
 90
5
 70
1
 10
34.050000
 20
45.450000
 10
34.700000
 20
45.450000
 10
34.700000
 20
46.550000
 10
33.400000
 20
46.550000
 10
33.400000
 20
45.450000
  0
LWPOLYLINE
  8
0
 62
7
 90
5
 70
1
 10
34.050000
 20
43.550000
 10
34.700000
 20
43.550000
 10
34.700000
 20
44.650000
 10
33.400000
 20
44.650000
 10
33.400000
 20
43.550000
  0
LWPOLYLINE
  8
0
 62
7
 90
5
 70
1
 10
69.950000
 20
44.050000
 10
69.950000
 20
43.400000
 10
71.050000
 20
43.400000
 10
71.050000
 20
44.700000
 10
69.950000
 20
44.700000
  0
LWPOLYLINE
  8
0
 62
7
 90
5
 70
1
 10
68.050000
 20
44.050000
 10
68.050000
 20
43.400000
 10
69.150000
 20
43.400000
 10
69.150000
 20
44.700000
 10
68.050000
 20
44.700000
  0
LWPOLYLINE
  8
0
 62
7
 90
5
 70
1
 10
55.050000
 20
44.450000
 10
55.700000
 20
44.450000
 10
55.700000
 20
45.550000
 10
54.400000
 20
45.550000
 10
54.400000
 20
44.450000
  0
LWPOLYLINE
  8
0
 62
7
 90
5
 70
1
 10
55.050000
 20
42.550000
 10
55.700000
 20
42.550000
 10
55.700000
 20
43.650000
 10
54.400000
 20
43.650000
 10
54.400000
 20
42.550000
  0
LWPOLYLINE
  8
0
 62
7
 90
5
 70
1
 10
22.800000
 20
38.525000
 10
22.150000
 20
38.525000
 10
22.150000
 20
37.425000
 10
23.450000
 20
37.425000
 10
23.450000
 20
38.525000
  0
LWPOLYLINE
  8
0
 62
7
 90
5
 70
1
 10
22.800000
 20
40.425000
 10
22.150000
 20
40.425000
 10
22.150000
 20
39.325000
 10
23.450000
 20
39.325000
 10
23.450000
 20
40.425000
  0
LWPOLYLINE
  8
0
 62
7
 90
5
 70
1
 10
73.850000
 20
43.150000
 10
73.850000
 20
42.550000
 10
74.650000
 20
42.550000
 10
74.650000
 20
43.750000
 10
73.850000
 20
43.750000
  0
LWPOLYLINE
  8
0
 62
7
 90
5
 70
1
 10
71.950000
 20
43.150000
 10
71.950000
 20
42.550000
 10
72.750000
 20
42.550000
 10
72.750000
 20
43.750000
 10
71.950000
 20
43.750000
  0
LWPOLYLINE
  8
0
 62
7
 90
5
 70
1
 10
72.900000
 20
40.950000
 10
72.900000
 20
40.350000
 10
73.700000
 20
40.350000
 10
73.700000
 20
41.550000
 10
72.900000
 20
41.550000
  0
LWPOLYLINE
  8
0
 62
7
 90
5
 70
1
 10
57.550000
 20
3.250000
 10
55.000000
 20
3.250000
 10
55.000000
 20
1.450000
 10
60.100000
 20
1.450000
 10
60.100000
 20
3.250000
  0
LWPOLYLINE
  8
0
 62
7
 90
5
 70
1
 10
57.550000
 20
10.650000
 10
55.000000
 20
10.650000
 10
55.000000
 20
8.850000
 10
60.100000
 20
8.850000
 10
60.100000
 20
10.650000
  0
LWPOLYLINE
  8
0
 62
7
 90
5
 70
1
  0
LWPOLYLINE
  8
0
 62
7
 90
5
 70
1
 10
14.590500
 20
48.250000
 10
14.590500
 20
48.312500
 10
14.108000
 20
48.312500
 10
14.108000
 20
48.187500
 10
14.590500
 20
48.187500
  0
LWPOLYLINE
  8
0
 62
7
 90
5
 70
1
  0
LWPOLYLINE
  8
0
 62
7
 90
5
 70
1
 10
14.590500
 20
47.600000
 10
14.590500
 20
47.662500
 10
14.108000
 20
47.662500
 10
14.108000
 20
47.537500
 10
14.590500
 20
47.537500
  0
LWPOLYLINE
  8
0
 62
7
 90
5
 70
1
  0
LWPOLYLINE
  8
0
 62
7
 90
5
 70
1
 10
14.590500
 20
46.950000
 10
14.590500
 20
47.012500
 10
14.108000
 20
47.012500
 10
14.108000
 20
46.887500
 10
14.590500
 20
46.887500
  0
LWPOLYLINE
  8
0
 62
7
 90
5
 70
1
  0
LWPOLYLINE
  8
0
 62
7
 90
5
 70
1
 10
14.590500
 20
46.300000
 10
14.590500
 20
46.362500
 10
14.108000
 20
46.362500
 10
14.108000
 20
46.237500
 10
14.590500
 20
46.237500
  0
LWPOLYLINE
  8
0
 62
7
 90
5
 70
1
  0
LWPOLYLINE
  8
0
 62
7
 90
5
 70
1
 10
14.590500
 20
45.650000
 10
14.590500
 20
45.712500
 10
14.108000
 20
45.712500
 10
14.108000
 20
45.587500
 10
14.590500
 20
45.587500
  0
LWPOLYLINE
  8
0
 62
7
 90
5
 70
1
  0
LWPOLYLINE
  8
0
 62
7
 90
5
 70
1
 10
14.590500
 20
45.000000
 10
14.590500
 20
45.062500
 10
14.108000
 20
45.062500
 10
14.108000
 20
44.937500
 10
14.590500
 20
44.937500
  0
LWPOLYLINE
  8
0
 62
7
 90
5
 70
1
  0
LWPOLYLINE
  8
0
 62
7
 90
5
 70
1
 10
14.590500
 20
44.350000
 10
14.590500
 20
44.412500
 10
14.108000
 20
44.412500
 10
14.108000
 20
44.287500
 10
14.590500
 20
44.287500
  0
LWPOLYLINE
  8
0
 62
7
 90
5
 70
1
  0
LWPOLYLINE
  8
0
 62
7
 90
5
 70
1
 10
15.100000
 20
43.840500
 10
15.037500
 20
43.840500
 10
15.037500
 20
43.358100
 10
15.162500
 20
43.358100
 10
15.162500
 20
43.840500
  0
LWPOLYLINE
  8
0
 62
7
 90
5
 70
1
  0
LWPOLYLINE
  8
0
 62
7
 90
5
 70
1
 10
15.750000
 20
43.840500
 10
15.687500
 20
43.840500
 10
15.687500
 20
43.358100
 10
15.812500
 20
43.358100
 10
15.812500
 20
43.840500
  0
LWPOLYLINE
  8
0
 62
7
 90
5
 70
1
  0
LWPOLYLINE
  8
0
 62
7
 90
5
 70
1
 10
16.400000
 20
43.840500
 10
16.337500
 20
43.840500
 10
16.337500
 20
43.358100
 10
16.462500
 20
43.358100
 10
16.462500
 20
43.840500
  0
LWPOLYLINE
  8
0
 62
7
 90
5
 70
1
  0
LWPOLYLINE
  8
0
 62
7
 90
5
 70
1
 10
17.050000
 20
43.840500
 10
16.987500
 20
43.840500
 10
16.987500
 20
43.358100
 10
17.112500
 20
43.358100
 10
17.112500
 20
43.840500
  0
LWPOLYLINE
  8
0
 62
7
 90
5
 70
1
  0
LWPOLYLINE
  8
0
 62
7
 90
5
 70
1
 10
17.700000
 20
43.840500
 10
17.637500
 20
43.840500
 10
17.637500
 20
43.358100
 10
17.762500
 20
43.358100
 10
17.762500
 20
43.840500
  0
LWPOLYLINE
  8
0
 62
7
 90
5
 70
1
  0
LWPOLYLINE
  8
0
 62
7
 90
5
 70
1
 10
18.350000
 20
43.840500
 10
18.287500
 20
43.840500
 10
18.287500
 20
43.358100
 10
18.412500
 20
43.358100
 10
18.412500
 20
43.840500
  0
LWPOLYLINE
  8
0
 62
7
 90
5
 70
1
  0
LWPOLYLINE
  8
0
 62
7
 90
5
 70
1
 10
19.000000
 20
43.840500
 10
18.937500
 20
43.840500
 10
18.937500
 20
43.358100
 10
19.062500
 20
43.358100
 10
19.062500
 20
43.840500
  0
LWPOLYLINE
  8
0
 62
7
 90
5
 70
1
  0
LWPOLYLINE
  8
0
 62
7
 90
5
 70
1
 10
19.509500
 20
44.350000
 10
19.509500
 20
44.287500
 10
19.991900
 20
44.287500
 10
19.991900
 20
44.412500
 10
19.509500
 20
44.412500
  0
LWPOLYLINE
  8
0
 62
7
 90
5
 70
1
  0
LWPOLYLINE
  8
0
 62
7
 90
5
 70
1
 10
19.509500
 20
45.000000
 10
19.509500
 20
44.937500
 10
19.991900
 20
44.937500
 10
19.991900
 20
45.062500
 10
19.509500
 20
45.062500
  0
LWPOLYLINE
  8
0
 62
7
 90
5
 70
1
  0
LWPOLYLINE
  8
0
 62
7
 90
5
 70
1
 10
19.509500
 20
45.650000
 10
19.509500
 20
45.587500
 10
19.991900
 20
45.587500
 10
19.991900
 20
45.712500
 10
19.509500
 20
45.712500
  0
LWPOLYLINE
  8
0
 62
7
 90
5
 70
1
  0
LWPOLYLINE
  8
0
 62
7
 90
5
 70
1
 10
19.509500
 20
46.300000
 10
19.509500
 20
46.237500
 10
19.991900
 20
46.237500
 10
19.991900
 20
46.362500
 10
19.509500
 20
46.362500
  0
LWPOLYLINE
  8
0
 62
7
 90
5
 70
1
  0
LWPOLYLINE
  8
0
 62
7
 90
5
 70
1
 10
19.509500
 20
46.950000
 10
19.509500
 20
46.887500
 10
19.991900
 20
46.887500
 10
19.991900
 20
47.012500
 10
19.509500
 20
47.012500
  0
LWPOLYLINE
  8
0
 62
7
 90
5
 70
1
  0
LWPOLYLINE
  8
0
 62
7
 90
5
 70
1
 10
19.509500
 20
47.600000
 10
19.509500
 20
47.537500
 10
19.991900
 20
47.537500
 10
19.991900
 20
47.662500
 10
19.509500
 20
47.662500
  0
LWPOLYLINE
  8
0
 62
7
 90
5
 70
1
  0
LWPOLYLINE
  8
0
 62
7
 90
5
 70
1
 10
19.509500
 20
48.250000
 10
19.509500
 20
48.187500
 10
19.991900
 20
48.187500
 10
19.991900
 20
48.312500
 10
19.509500
 20
48.312500
  0
LWPOLYLINE
  8
0
 62
7
 90
5
 70
1
  0
LWPOLYLINE
  8
0
 62
7
 90
5
 70
1
 10
19.000000
 20
48.759500
 10
19.062500
 20
48.759500
 10
19.062500
 20
49.241900
 10
18.937500
 20
49.241900
 10
18.937500
 20
48.759500
  0
LWPOLYLINE
  8
0
 62
7
 90
5
 70
1
  0
LWPOLYLINE
  8
0
 62
7
 90
5
 70
1
 10
18.350000
 20
48.759500
 10
18.412500
 20
48.759500
 10
18.412500
 20
49.241900
 10
18.287500
 20
49.241900
 10
18.287500
 20
48.759500
  0
LWPOLYLINE
  8
0
 62
7
 90
5
 70
1
  0
LWPOLYLINE
  8
0
 62
7
 90
5
 70
1
 10
17.700000
 20
48.759500
 10
17.762500
 20
48.759500
 10
17.762500
 20
49.241900
 10
17.637500
 20
49.241900
 10
17.637500
 20
48.759500
  0
LWPOLYLINE
  8
0
 62
7
 90
5
 70
1
  0
LWPOLYLINE
  8
0
 62
7
 90
5
 70
1
 10
17.050000
 20
48.759500
 10
17.112500
 20
48.759500
 10
17.112500
 20
49.241900
 10
16.987500
 20
49.241900
 10
16.987500
 20
48.759500
  0
LWPOLYLINE
  8
0
 62
7
 90
5
 70
1
  0
LWPOLYLINE
  8
0
 62
7
 90
5
 70
1
 10
16.400000
 20
48.759500
 10
16.462500
 20
48.759500
 10
16.462500
 20
49.241900
 10
16.337500
 20
49.241900
 10
16.337500
 20
48.759500
  0
LWPOLYLINE
  8
0
 62
7
 90
5
 70
1
  0
LWPOLYLINE
  8
0
 62
7
 90
5
 70
1
 10
15.750000
 20
48.759500
 10
15.812500
 20
48.759500
 10
15.812500
 20
49.241900
 10
15.687500
 20
49.241900
 10
15.687500
 20
48.759500
  0
LWPOLYLINE
  8
0
 62
7
 90
5
 70
1
  0
LWPOLYLINE
  8
0
 62
7
 90
5
 70
1
 10
15.100000
 20
48.759500
 10
15.162500
 20
48.759500
 10
15.162500
 20
49.241900
 10
15.037500
 20
49.241900
 10
15.037500
 20
48.759500
  0
LWPOLYLINE
  8
0
 62
7
 90
5
 70
1
  0
LWPOLYLINE
  8
0
 62
7
 90
5
 70
1
 10
18.685500
 20
46.300000
 10
18.685500
 20
47.935500
 10
15.414500
 20
47.935500
 10
15.414500
 20
44.664500
 10
18.685500
 20
44.664500
  0
LWPOLYLINE
  8
0
 62
7
 90
5
 70
1
  0
LWPOLYLINE
  8
0
 62
7
 90
5
 70
1
 10
10.350000
 20
33.090500
 10
10.287500
 20
33.090500
 10
10.287500
 20
32.608000
 10
10.412500
 20
32.608000
 10
10.412500
 20
33.090500
  0
LWPOLYLINE
  8
0
 62
7
 90
5
 70
1
  0
LWPOLYLINE
  8
0
 62
7
 90
5
 70
1
 10
11.000000
 20
33.090500
 10
10.937500
 20
33.090500
 10
10.937500
 20
32.608000
 10
11.062500
 20
32.608000
 10
11.062500
 20
33.090500
  0
LWPOLYLINE
  8
0
 62
7
 90
5
 70
1
  0
LWPOLYLINE
  8
0
 62
7
 90
5
 70
1
 10
11.650000
 20
33.090500
 10
11.587500
 20
33.090500
 10
11.587500
 20
32.608000
 10
11.712500
 20
32.608000
 10
11.712500
 20
33.090500
  0
LWPOLYLINE
  8
0
 62
7
 90
5
 70
1
  0
LWPOLYLINE
  8
0
 62
7
 90
5
 70
1
 10
12.300000
 20
33.090500
 10
12.237500
 20
33.090500
 10
12.237500
 20
32.608000
 10
12.362500
 20
32.608000
 10
12.362500
 20
33.090500
  0
LWPOLYLINE
  8
0
 62
7
 90
5
 70
1
  0
LWPOLYLINE
  8
0
 62
7
 90
5
 70
1
 10
12.950000
 20
33.090500
 10
12.887500
 20
33.090500
 10
12.887500
 20
32.608000
 10
13.012500
 20
32.608000
 10
13.012500
 20
33.090500
  0
LWPOLYLINE
  8
0
 62
7
 90
5
 70
1
  0
LWPOLYLINE
  8
0
 62
7
 90
5
 70
1
 10
13.600000
 20
33.090500
 10
13.537500
 20
33.090500
 10
13.537500
 20
32.608000
 10
13.662500
 20
32.608000
 10
13.662500
 20
33.090500
  0
LWPOLYLINE
  8
0
 62
7
 90
5
 70
1
  0
LWPOLYLINE
  8
0
 62
7
 90
5
 70
1
 10
14.250000
 20
33.090500
 10
14.187500
 20
33.090500
 10
14.187500
 20
32.608000
 10
14.312500
 20
32.608000
 10
14.312500
 20
33.090500
  0
LWPOLYLINE
  8
0
 62
7
 90
5
 70
1
  0
LWPOLYLINE
  8
0
 62
7
 90
5
 70
1
 10
14.759500
 20
33.600000
 10
14.759500
 20
33.537500
 10
15.241900
 20
33.537500
 10
15.241900
 20
33.662500
 10
14.759500
 20
33.662500
  0
LWPOLYLINE
  8
0
 62
7
 90
5
 70
1
  0
LWPOLYLINE
  8
0
 62
7
 90
5
 70
1
 10
14.759500
 20
34.250000
 10
14.759500
 20
34.187500
 10
15.241900
 20
34.187500
 10
15.241900
 20
34.312500
 10
14.759500
 20
34.312500
  0
LWPOLYLINE
  8
0
 62
7
 90
5
 70
1
  0
LWPOLYLINE
  8
0
 62
7
 90
5
 70
1
 10
14.759500
 20
34.900000
 10
14.759500
 20
34.837500
 10
15.241900
 20
34.837500
 10
15.241900
 20
34.962500
 10
14.759500
 20
34.962500
  0
LWPOLYLINE
  8
0
 62
7
 90
5
 70
1
  0
LWPOLYLINE
  8
0
 62
7
 90
5
 70
1
 10
14.759500
 20
35.550000
 10
14.759500
 20
35.487500
 10
15.241900
 20
35.487500
 10
15.241900
 20
35.612500
 10
14.759500
 20
35.612500
  0
LWPOLYLINE
  8
0
 62
7
 90
5
 70
1
  0
LWPOLYLINE
  8
0
 62
7
 90
5
 70
1
 10
14.759500
 20
36.200000
 10
14.759500
 20
36.137500
 10
15.241900
 20
36.137500
 10
15.241900
 20
36.262500
 10
14.759500
 20
36.262500
  0
LWPOLYLINE
  8
0
 62
7
 90
5
 70
1
  0
LWPOLYLINE
  8
0
 62
7
 90
5
 70
1
 10
14.759500
 20
36.850000
 10
14.759500
 20
36.787500
 10
15.241900
 20
36.787500
 10
15.241900
 20
36.912500
 10
14.759500
 20
36.912500
  0
LWPOLYLINE
  8
0
 62
7
 90
5
 70
1
  0
LWPOLYLINE
  8
0
 62
7
 90
5
 70
1
 10
14.759500
 20
37.500000
 10
14.759500
 20
37.437500
 10
15.241900
 20
37.437500
 10
15.241900
 20
37.562500
 10
14.759500
 20
37.562500
  0
LWPOLYLINE
  8
0
 62
7
 90
5
 70
1
  0
LWPOLYLINE
  8
0
 62
7
 90
5
 70
1
 10
14.250000
 20
38.009500
 10
14.312500
 20
38.009500
 10
14.312500
 20
38.491900
 10
14.187500
 20
38.491900
 10
14.187500
 20
38.009500
  0
LWPOLYLINE
  8
0
 62
7
 90
5
 70
1
  0
LWPOLYLINE
  8
0
 62
7
 90
5
 70
1
 10
13.600000
 20
38.009500
 10
13.662500
 20
38.009500
 10
13.662500
 20
38.491900
 10
13.537500
 20
38.491900
 10
13.537500
 20
38.009500
  0
LWPOLYLINE
  8
0
 62
7
 90
5
 70
1
  0
LWPOLYLINE
  8
0
 62
7
 90
5
 70
1
 10
12.950000
 20
38.009500
 10
13.012500
 20
38.009500
 10
13.012500
 20
38.491900
 10
12.887500
 20
38.491900
 10
12.887500
 20
38.009500
  0
LWPOLYLINE
  8
0
 62
7
 90
5
 70
1
  0
LWPOLYLINE
  8
0
 62
7
 90
5
 70
1
 10
12.300000
 20
38.009500
 10
12.362500
 20
38.009500
 10
12.362500
 20
38.491900
 10
12.237500
 20
38.491900
 10
12.237500
 20
38.009500
  0
LWPOLYLINE
  8
0
 62
7
 90
5
 70
1
  0
LWPOLYLINE
  8
0
 62
7
 90
5
 70
1
 10
11.650000
 20
38.009500
 10
11.712500
 20
38.009500
 10
11.712500
 20
38.491900
 10
11.587500
 20
38.491900
 10
11.587500
 20
38.009500
  0
LWPOLYLINE
  8
0
 62
7
 90
5
 70
1
  0
LWPOLYLINE
  8
0
 62
7
 90
5
 70
1
 10
11.000000
 20
38.009500
 10
11.062500
 20
38.009500
 10
11.062500
 20
38.491900
 10
10.937500
 20
38.491900
 10
10.937500
 20
38.009500
  0
LWPOLYLINE
  8
0
 62
7
 90
5
 70
1
  0
LWPOLYLINE
  8
0
 62
7
 90
5
 70
1
 10
10.350000
 20
38.009500
 10
10.412500
 20
38.009500
 10
10.412500
 20
38.491900
 10
10.287500
 20
38.491900
 10
10.287500
 20
38.009500
  0
LWPOLYLINE
  8
0
 62
7
 90
5
 70
1
  0
LWPOLYLINE
  8
0
 62
7
 90
5
 70
1
 10
9.840500
 20
37.500000
 10
9.840500
 20
37.562500
 10
9.358100
 20
37.562500
 10
9.358100
 20
37.437500
 10
9.840500
 20
37.437500
  0
LWPOLYLINE
  8
0
 62
7
 90
5
 70
1
  0
LWPOLYLINE
  8
0
 62
7
 90
5
 70
1
 10
9.840500
 20
36.850000
 10
9.840500
 20
36.912500
 10
9.358100
 20
36.912500
 10
9.358100
 20
36.787500
 10
9.840500
 20
36.787500
  0
LWPOLYLINE
  8
0
 62
7
 90
5
 70
1
  0
LWPOLYLINE
  8
0
 62
7
 90
5
 70
1
 10
9.840500
 20
36.200000
 10
9.840500
 20
36.262500
 10
9.358100
 20
36.262500
 10
9.358100
 20
36.137500
 10
9.840500
 20
36.137500
  0
LWPOLYLINE
  8
0
 62
7
 90
5
 70
1
  0
LWPOLYLINE
  8
0
 62
7
 90
5
 70
1
 10
9.840500
 20
35.550000
 10
9.840500
 20
35.612500
 10
9.358100
 20
35.612500
 10
9.358100
 20
35.487500
 10
9.840500
 20
35.487500
  0
LWPOLYLINE
  8
0
 62
7
 90
5
 70
1
  0
LWPOLYLINE
  8
0
 62
7
 90
5
 70
1
 10
9.840500
 20
34.900000
 10
9.840500
 20
34.962500
 10
9.358100
 20
34.962500
 10
9.358100
 20
34.837500
 10
9.840500
 20
34.837500
  0
LWPOLYLINE
  8
0
 62
7
 90
5
 70
1
  0
LWPOLYLINE
  8
0
 62
7
 90
5
 70
1
 10
9.840500
 20
34.250000
 10
9.840500
 20
34.312500
 10
9.358100
 20
34.312500
 10
9.358100
 20
34.187500
 10
9.840500
 20
34.187500
  0
LWPOLYLINE
  8
0
 62
7
 90
5
 70
1
  0
LWPOLYLINE
  8
0
 62
7
 90
5
 70
1
 10
9.840500
 20
33.600000
 10
9.840500
 20
33.662500
 10
9.358100
 20
33.662500
 10
9.358100
 20
33.537500
 10
9.840500
 20
33.537500
  0
LWPOLYLINE
  8
0
 62
7
 90
5
 70
1
  0
LWPOLYLINE
  8
0
 62
7
 90
5
 70
1
 10
12.300000
 20
37.185500
 10
10.664500
 20
37.185500
 10
10.664500
 20
33.914500
 10
13.935500
 20
33.914500
 10
13.935500
 20
37.185500
  0
LWPOLYLINE
  8
0
 62
7
 90
5
 70
1
 10
56.877400
 20
40.382200
 10
56.877400
 20
40.777500
 10
56.772600
 20
40.777500
 10
56.772600
 20
39.986900
 10
56.877400
 20
39.986900
  0
LWPOLYLINE
  8
0
 62
7
 90
5
 70
1
 10
57.527400
 20
40.382200
 10
57.527400
 20
40.777500
 10
57.422600
 20
40.777500
 10
57.422600
 20
39.986900
 10
57.527400
 20
39.986900
  0
LWPOLYLINE
  8
0
 62
7
 90
5
 70
1
 10
58.177400
 20
40.382200
 10
58.177400
 20
40.777500
 10
58.072600
 20
40.777500
 10
58.072600
 20
39.986900
 10
58.177400
 20
39.986900
  0
LWPOLYLINE
  8
0
 62
7
 90
5
 70
1
 10
58.827400
 20
40.382200
 10
58.827400
 20
40.777500
 10
58.722600
 20
40.777500
 10
58.722600
 20
39.986900
 10
58.827400
 20
39.986900
  0
LWPOLYLINE
  8
0
 62
7
 90
5
 70
1
 10
59.477400
 20
40.382200
 10
59.477400
 20
40.777500
 10
59.372600
 20
40.777500
 10
59.372600
 20
39.986900
 10
59.477400
 20
39.986900
  0
LWPOLYLINE
  8
0
 62
7
 90
5
 70
1
 10
60.127400
 20
40.382200
 10
60.127400
 20
40.777500
 10
60.022600
 20
40.777500
 10
60.022600
 20
39.986900
 10
60.127400
 20
39.986900
  0
LWPOLYLINE
  8
0
 62
7
 90
5
 70
1
 10
60.777400
 20
40.382200
 10
60.777400
 20
40.777500
 10
60.672600
 20
40.777500
 10
60.672600
 20
39.986900
 10
60.777400
 20
39.986900
  0
LWPOLYLINE
  8
0
 62
7
 90
5
 70
1
 10
61.427400
 20
40.382200
 10
61.427400
 20
40.777500
 10
61.322600
 20
40.777500
 10
61.322600
 20
39.986900
 10
61.427400
 20
39.986900
  0
LWPOLYLINE
  8
0
 62
7
 90
5
 70
1
 10
62.077400
 20
40.382200
 10
62.077400
 20
40.777500
 10
61.972600
 20
40.777500
 10
61.972600
 20
39.986900
 10
62.077400
 20
39.986900
  0
LWPOLYLINE
  8
0
 62
7
 90
5
 70
1
 10
62.727400
 20
40.382200
 10
62.727400
 20
40.777500
 10
62.622600
 20
40.777500
 10
62.622600
 20
39.986900
 10
62.727400
 20
39.986900
  0
LWPOLYLINE
  8
0
 62
7
 90
5
 70
1
 10
63.377400
 20
40.382200
 10
63.377400
 20
40.777500
 10
63.272600
 20
40.777500
 10
63.272600
 20
39.986900
 10
63.377400
 20
39.986900
  0
LWPOLYLINE
  8
0
 62
7
 90
5
 70
1
 10
64.027400
 20
40.382200
 10
64.027400
 20
40.777500
 10
63.922600
 20
40.777500
 10
63.922600
 20
39.986900
 10
64.027400
 20
39.986900
  0
LWPOLYLINE
  8
0
 62
7
 90
5
 70
1
 10
64.677400
 20
40.382200
 10
64.677400
 20
40.777500
 10
64.572600
 20
40.777500
 10
64.572600
 20
39.986900
 10
64.677400
 20
39.986900
  0
LWPOLYLINE
  8
0
 62
7
 90
5
 70
1
 10
65.327400
 20
40.382200
 10
65.327400
 20
40.777500
 10
65.222600
 20
40.777500
 10
65.222600
 20
39.986900
 10
65.327400
 20
39.986900
  0
LWPOLYLINE
  8
0
 62
7
 90
5
 70
1
 10
65.327400
 20
46.217800
 10
65.327400
 20
46.613100
 10
65.222600
 20
46.613100
 10
65.222600
 20
45.822500
 10
65.327400
 20
45.822500
  0
LWPOLYLINE
  8
0
 62
7
 90
5
 70
1
 10
64.677400
 20
46.217800
 10
64.677400
 20
46.613100
 10
64.572600
 20
46.613100
 10
64.572600
 20
45.822500
 10
64.677400
 20
45.822500
  0
LWPOLYLINE
  8
0
 62
7
 90
5
 70
1
 10
64.027400
 20
46.217800
 10
64.027400
 20
46.613100
 10
63.922600
 20
46.613100
 10
63.922600
 20
45.822500
 10
64.027400
 20
45.822500
  0
LWPOLYLINE
  8
0
 62
7
 90
5
 70
1
 10
63.377400
 20
46.217800
 10
63.377400
 20
46.613100
 10
63.272600
 20
46.613100
 10
63.272600
 20
45.822500
 10
63.377400
 20
45.822500
  0
LWPOLYLINE
  8
0
 62
7
 90
5
 70
1
 10
62.727400
 20
46.217800
 10
62.727400
 20
46.613100
 10
62.622600
 20
46.613100
 10
62.622600
 20
45.822500
 10
62.727400
 20
45.822500
  0
LWPOLYLINE
  8
0
 62
7
 90
5
 70
1
 10
62.077400
 20
46.217800
 10
62.077400
 20
46.613100
 10
61.972600
 20
46.613100
 10
61.972600
 20
45.822500
 10
62.077400
 20
45.822500
  0
LWPOLYLINE
  8
0
 62
7
 90
5
 70
1
 10
61.427400
 20
46.217800
 10
61.427400
 20
46.613100
 10
61.322600
 20
46.613100
 10
61.322600
 20
45.822500
 10
61.427400
 20
45.822500
  0
LWPOLYLINE
  8
0
 62
7
 90
5
 70
1
 10
60.777400
 20
46.217800
 10
60.777400
 20
46.613100
 10
60.672600
 20
46.613100
 10
60.672600
 20
45.822500
 10
60.777400
 20
45.822500
  0
LWPOLYLINE
  8
0
 62
7
 90
5
 70
1
 10
60.127400
 20
46.217800
 10
60.127400
 20
46.613100
 10
60.022600
 20
46.613100
 10
60.022600
 20
45.822500
 10
60.127400
 20
45.822500
  0
LWPOLYLINE
  8
0
 62
7
 90
5
 70
1
 10
59.477400
 20
46.217800
 10
59.477400
 20
46.613100
 10
59.372600
 20
46.613100
 10
59.372600
 20
45.822500
 10
59.477400
 20
45.822500
  0
LWPOLYLINE
  8
0
 62
7
 90
5
 70
1
 10
58.827400
 20
46.217800
 10
58.827400
 20
46.613100
 10
58.722600
 20
46.613100
 10
58.722600
 20
45.822500
 10
58.827400
 20
45.822500
  0
LWPOLYLINE
  8
0
 62
7
 90
5
 70
1
 10
58.177400
 20
46.217800
 10
58.177400
 20
46.613100
 10
58.072600
 20
46.613100
 10
58.072600
 20
45.822500
 10
58.177400
 20
45.822500
  0
LWPOLYLINE
  8
0
 62
7
 90
5
 70
1
 10
57.527400
 20
46.217800
 10
57.527400
 20
46.613100
 10
57.422600
 20
46.613100
 10
57.422600
 20
45.822500
 10
57.527400
 20
45.822500
  0
LWPOLYLINE
  8
0
 62
7
 90
5
 70
1
 10
56.877400
 20
46.217800
 10
56.877400
 20
46.613100
 10
56.772600
 20
46.613100
 10
56.772600
 20
45.822500
 10
56.877400
 20
45.822500
  0
LWPOLYLINE
  8
0
 62
7
 90
5
 70
1
 10
35.877400
 20
40.382200
 10
35.877400
 20
40.777500
 10
35.772600
 20
40.777500
 10
35.772600
 20
39.986900
 10
35.877400
 20
39.986900
  0
LWPOLYLINE
  8
0
 62
7
 90
5
 70
1
 10
36.527400
 20
40.382200
 10
36.527400
 20
40.777500
 10
36.422600
 20
40.777500
 10
36.422600
 20
39.986900
 10
36.527400
 20
39.986900
  0
LWPOLYLINE
  8
0
 62
7
 90
5
 70
1
 10
37.177400
 20
40.382200
 10
37.177400
 20
40.777500
 10
37.072600
 20
40.777500
 10
37.072600
 20
39.986900
 10
37.177400
 20
39.986900
  0
LWPOLYLINE
  8
0
 62
7
 90
5
 70
1
 10
37.827400
 20
40.382200
 10
37.827400
 20
40.777500
 10
37.722600
 20
40.777500
 10
37.722600
 20
39.986900
 10
37.827400
 20
39.986900
  0
LWPOLYLINE
  8
0
 62
7
 90
5
 70
1
 10
38.477400
 20
40.382200
 10
38.477400
 20
40.777500
 10
38.372600
 20
40.777500
 10
38.372600
 20
39.986900
 10
38.477400
 20
39.986900
  0
LWPOLYLINE
  8
0
 62
7
 90
5
 70
1
 10
39.127400
 20
40.382200
 10
39.127400
 20
40.777500
 10
39.022600
 20
40.777500
 10
39.022600
 20
39.986900
 10
39.127400
 20
39.986900
  0
LWPOLYLINE
  8
0
 62
7
 90
5
 70
1
 10
39.777400
 20
40.382200
 10
39.777400
 20
40.777500
 10
39.672600
 20
40.777500
 10
39.672600
 20
39.986900
 10
39.777400
 20
39.986900
  0
LWPOLYLINE
  8
0
 62
7
 90
5
 70
1
 10
40.427400
 20
40.382200
 10
40.427400
 20
40.777500
 10
40.322600
 20
40.777500
 10
40.322600
 20
39.986900
 10
40.427400
 20
39.986900
  0
LWPOLYLINE
  8
0
 62
7
 90
5
 70
1
 10
41.077400
 20
40.382200
 10
41.077400
 20
40.777500
 10
40.972600
 20
40.777500
 10
40.972600
 20
39.986900
 10
41.077400
 20
39.986900
  0
LWPOLYLINE
  8
0
 62
7
 90
5
 70
1
 10
41.727400
 20
40.382200
 10
41.727400
 20
40.777500
 10
41.622600
 20
40.777500
 10
41.622600
 20
39.986900
 10
41.727400
 20
39.986900
  0
LWPOLYLINE
  8
0
 62
7
 90
5
 70
1
 10
42.377400
 20
40.382200
 10
42.377400
 20
40.777500
 10
42.272600
 20
40.777500
 10
42.272600
 20
39.986900
 10
42.377400
 20
39.986900
  0
LWPOLYLINE
  8
0
 62
7
 90
5
 70
1
 10
43.027400
 20
40.382200
 10
43.027400
 20
40.777500
 10
42.922600
 20
40.777500
 10
42.922600
 20
39.986900
 10
43.027400
 20
39.986900
  0
LWPOLYLINE
  8
0
 62
7
 90
5
 70
1
 10
43.677400
 20
40.382200
 10
43.677400
 20
40.777500
 10
43.572600
 20
40.777500
 10
43.572600
 20
39.986900
 10
43.677400
 20
39.986900
  0
LWPOLYLINE
  8
0
 62
7
 90
5
 70
1
 10
44.327400
 20
40.382200
 10
44.327400
 20
40.777500
 10
44.222600
 20
40.777500
 10
44.222600
 20
39.986900
 10
44.327400
 20
39.986900
  0
LWPOLYLINE
  8
0
 62
7
 90
5
 70
1
 10
44.327400
 20
46.217800
 10
44.327400
 20
46.613100
 10
44.222600
 20
46.613100
 10
44.222600
 20
45.822500
 10
44.327400
 20
45.822500
  0
LWPOLYLINE
  8
0
 62
7
 90
5
 70
1
 10
43.677400
 20
46.217800
 10
43.677400
 20
46.613100
 10
43.572600
 20
46.613100
 10
43.572600
 20
45.822500
 10
43.677400
 20
45.822500
  0
LWPOLYLINE
  8
0
 62
7
 90
5
 70
1
 10
43.027400
 20
46.217800
 10
43.027400
 20
46.613100
 10
42.922600
 20
46.613100
 10
42.922600
 20
45.822500
 10
43.027400
 20
45.822500
  0
LWPOLYLINE
  8
0
 62
7
 90
5
 70
1
 10
42.377400
 20
46.217800
 10
42.377400
 20
46.613100
 10
42.272600
 20
46.613100
 10
42.272600
 20
45.822500
 10
42.377400
 20
45.822500
  0
LWPOLYLINE
  8
0
 62
7
 90
5
 70
1
 10
41.727400
 20
46.217800
 10
41.727400
 20
46.613100
 10
41.622600
 20
46.613100
 10
41.622600
 20
45.822500
 10
41.727400
 20
45.822500
  0
LWPOLYLINE
  8
0
 62
7
 90
5
 70
1
 10
41.077400
 20
46.217800
 10
41.077400
 20
46.613100
 10
40.972600
 20
46.613100
 10
40.972600
 20
45.822500
 10
41.077400
 20
45.822500
  0
LWPOLYLINE
  8
0
 62
7
 90
5
 70
1
 10
40.427400
 20
46.217800
 10
40.427400
 20
46.613100
 10
40.322600
 20
46.613100
 10
40.322600
 20
45.822500
 10
40.427400
 20
45.822500
  0
LWPOLYLINE
  8
0
 62
7
 90
5
 70
1
 10
39.777400
 20
46.217800
 10
39.777400
 20
46.613100
 10
39.672600
 20
46.613100
 10
39.672600
 20
45.822500
 10
39.777400
 20
45.822500
  0
LWPOLYLINE
  8
0
 62
7
 90
5
 70
1
 10
39.127400
 20
46.217800
 10
39.127400
 20
46.613100
 10
39.022600
 20
46.613100
 10
39.022600
 20
45.822500
 10
39.127400
 20
45.822500
  0
LWPOLYLINE
  8
0
 62
7
 90
5
 70
1
 10
38.477400
 20
46.217800
 10
38.477400
 20
46.613100
 10
38.372600
 20
46.613100
 10
38.372600
 20
45.822500
 10
38.477400
 20
45.822500
  0
LWPOLYLINE
  8
0
 62
7
 90
5
 70
1
 10
37.827400
 20
46.217800
 10
37.827400
 20
46.613100
 10
37.722600
 20
46.613100
 10
37.722600
 20
45.822500
 10
37.827400
 20
45.822500
  0
LWPOLYLINE
  8
0
 62
7
 90
5
 70
1
 10
37.177400
 20
46.217800
 10
37.177400
 20
46.613100
 10
37.072600
 20
46.613100
 10
37.072600
 20
45.822500
 10
37.177400
 20
45.822500
  0
LWPOLYLINE
  8
0
 62
7
 90
5
 70
1
 10
36.527400
 20
46.217800
 10
36.527400
 20
46.613100
 10
36.422600
 20
46.613100
 10
36.422600
 20
45.822500
 10
36.527400
 20
45.822500
  0
LWPOLYLINE
  8
0
 62
7
 90
5
 70
1
 10
35.877400
 20
46.217800
 10
35.877400
 20
46.613100
 10
35.772600
 20
46.613100
 10
35.772600
 20
45.822500
 10
35.877400
 20
45.822500
  0
LWPOLYLINE
  8
0
 62
7
 90
5
 70
1
  0
LWPOLYLINE
  8
0
 62
7
 90
5
 70
1
 10
27.000000
 20
35.634500
 10
27.062500
 20
35.634500
 10
27.062500
 20
36.117000
 10
26.937500
 20
36.117000
 10
26.937500
 20
35.634500
  0
LWPOLYLINE
  8
0
 62
7
 90
5
 70
1
  0
LWPOLYLINE
  8
0
 62
7
 90
5
 70
1
 10
26.350000
 20
35.634500
 10
26.412500
 20
35.634500
 10
26.412500
 20
36.117000
 10
26.287500
 20
36.117000
 10
26.287500
 20
35.634500
  0
LWPOLYLINE
  8
0
 62
7
 90
5
 70
1
  0
LWPOLYLINE
  8
0
 62
7
 90
5
 70
1
 10
25.700000
 20
35.634500
 10
25.762500
 20
35.634500
 10
25.762500
 20
36.117000
 10
25.637500
 20
36.117000
 10
25.637500
 20
35.634500
  0
LWPOLYLINE
  8
0
 62
7
 90
5
 70
1
  0
LWPOLYLINE
  8
0
 62
7
 90
5
 70
1
 10
25.050000
 20
35.634500
 10
25.112500
 20
35.634500
 10
25.112500
 20
36.117000
 10
24.987500
 20
36.117000
 10
24.987500
 20
35.634500
  0
LWPOLYLINE
  8
0
 62
7
 90
5
 70
1
  0
LWPOLYLINE
  8
0
 62
7
 90
5
 70
1
 10
24.400000
 20
35.634500
 10
24.462500
 20
35.634500
 10
24.462500
 20
36.117000
 10
24.337500
 20
36.117000
 10
24.337500
 20
35.634500
  0
LWPOLYLINE
  8
0
 62
7
 90
5
 70
1
  0
LWPOLYLINE
  8
0
 62
7
 90
5
 70
1
 10
23.750000
 20
35.634500
 10
23.812500
 20
35.634500
 10
23.812500
 20
36.117000
 10
23.687500
 20
36.117000
 10
23.687500
 20
35.634500
  0
LWPOLYLINE
  8
0
 62
7
 90
5
 70
1
  0
LWPOLYLINE
  8
0
 62
7
 90
5
 70
1
 10
23.100000
 20
35.634500
 10
23.162500
 20
35.634500
 10
23.162500
 20
36.117000
 10
23.037500
 20
36.117000
 10
23.037500
 20
35.634500
  0
LWPOLYLINE
  8
0
 62
7
 90
5
 70
1
  0
LWPOLYLINE
  8
0
 62
7
 90
5
 70
1
 10
22.590500
 20
35.125000
 10
22.590500
 20
35.187500
 10
22.108100
 20
35.187500
 10
22.108100
 20
35.062500
 10
22.590500
 20
35.062500
  0
LWPOLYLINE
  8
0
 62
7
 90
5
 70
1
  0
LWPOLYLINE
  8
0
 62
7
 90
5
 70
1
 10
22.590500
 20
34.475000
 10
22.590500
 20
34.537500
 10
22.108100
 20
34.537500
 10
22.108100
 20
34.412500
 10
22.590500
 20
34.412500
  0
LWPOLYLINE
  8
0
 62
7
 90
5
 70
1
  0
LWPOLYLINE
  8
0
 62
7
 90
5
 70
1
 10
22.590500
 20
33.825000
 10
22.590500
 20
33.887500
 10
22.108100
 20
33.887500
 10
22.108100
 20
33.762500
 10
22.590500
 20
33.762500
  0
LWPOLYLINE
  8
0
 62
7
 90
5
 70
1
  0
LWPOLYLINE
  8
0
 62
7
 90
5
 70
1
 10
22.590500
 20
33.175000
 10
22.590500
 20
33.237500
 10
22.108100
 20
33.237500
 10
22.108100
 20
33.112500
 10
22.590500
 20
33.112500
  0
LWPOLYLINE
  8
0
 62
7
 90
5
 70
1
  0
LWPOLYLINE
  8
0
 62
7
 90
5
 70
1
 10
22.590500
 20
32.525000
 10
22.590500
 20
32.587500
 10
22.108100
 20
32.587500
 10
22.108100
 20
32.462500
 10
22.590500
 20
32.462500
  0
LWPOLYLINE
  8
0
 62
7
 90
5
 70
1
  0
LWPOLYLINE
  8
0
 62
7
 90
5
 70
1
 10
22.590500
 20
31.875000
 10
22.590500
 20
31.937500
 10
22.108100
 20
31.937500
 10
22.108100
 20
31.812500
 10
22.590500
 20
31.812500
  0
LWPOLYLINE
  8
0
 62
7
 90
5
 70
1
  0
LWPOLYLINE
  8
0
 62
7
 90
5
 70
1
 10
22.590500
 20
31.225000
 10
22.590500
 20
31.287500
 10
22.108100
 20
31.287500
 10
22.108100
 20
31.162500
 10
22.590500
 20
31.162500
  0
LWPOLYLINE
  8
0
 62
7
 90
5
 70
1
  0
LWPOLYLINE
  8
0
 62
7
 90
5
 70
1
 10
23.100000
 20
30.715500
 10
23.037500
 20
30.715500
 10
23.037500
 20
30.233100
 10
23.162500
 20
30.233100
 10
23.162500
 20
30.715500
  0
LWPOLYLINE
  8
0
 62
7
 90
5
 70
1
  0
LWPOLYLINE
  8
0
 62
7
 90
5
 70
1
 10
23.750000
 20
30.715500
 10
23.687500
 20
30.715500
 10
23.687500
 20
30.233100
 10
23.812500
 20
30.233100
 10
23.812500
 20
30.715500
  0
LWPOLYLINE
  8
0
 62
7
 90
5
 70
1
  0
LWPOLYLINE
  8
0
 62
7
 90
5
 70
1
 10
24.400000
 20
30.715500
 10
24.337500
 20
30.715500
 10
24.337500
 20
30.233100
 10
24.462500
 20
30.233100
 10
24.462500
 20
30.715500
  0
LWPOLYLINE
  8
0
 62
7
 90
5
 70
1
  0
LWPOLYLINE
  8
0
 62
7
 90
5
 70
1
 10
25.050000
 20
30.715500
 10
24.987500
 20
30.715500
 10
24.987500
 20
30.233100
 10
25.112500
 20
30.233100
 10
25.112500
 20
30.715500
  0
LWPOLYLINE
  8
0
 62
7
 90
5
 70
1
  0
LWPOLYLINE
  8
0
 62
7
 90
5
 70
1
 10
25.700000
 20
30.715500
 10
25.637500
 20
30.715500
 10
25.637500
 20
30.233100
 10
25.762500
 20
30.233100
 10
25.762500
 20
30.715500
  0
LWPOLYLINE
  8
0
 62
7
 90
5
 70
1
  0
LWPOLYLINE
  8
0
 62
7
 90
5
 70
1
 10
26.350000
 20
30.715500
 10
26.287500
 20
30.715500
 10
26.287500
 20
30.233100
 10
26.412500
 20
30.233100
 10
26.412500
 20
30.715500
  0
LWPOLYLINE
  8
0
 62
7
 90
5
 70
1
  0
LWPOLYLINE
  8
0
 62
7
 90
5
 70
1
 10
27.000000
 20
30.715500
 10
26.937500
 20
30.715500
 10
26.937500
 20
30.233100
 10
27.062500
 20
30.233100
 10
27.062500
 20
30.715500
  0
LWPOLYLINE
  8
0
 62
7
 90
5
 70
1
  0
LWPOLYLINE
  8
0
 62
7
 90
5
 70
1
 10
27.509500
 20
31.225000
 10
27.509500
 20
31.162500
 10
27.991900
 20
31.162500
 10
27.991900
 20
31.287500
 10
27.509500
 20
31.287500
  0
LWPOLYLINE
  8
0
 62
7
 90
5
 70
1
  0
LWPOLYLINE
  8
0
 62
7
 90
5
 70
1
 10
27.509500
 20
31.875000
 10
27.509500
 20
31.812500
 10
27.991900
 20
31.812500
 10
27.991900
 20
31.937500
 10
27.509500
 20
31.937500
  0
LWPOLYLINE
  8
0
 62
7
 90
5
 70
1
  0
LWPOLYLINE
  8
0
 62
7
 90
5
 70
1
 10
27.509500
 20
32.525000
 10
27.509500
 20
32.462500
 10
27.991900
 20
32.462500
 10
27.991900
 20
32.587500
 10
27.509500
 20
32.587500
  0
LWPOLYLINE
  8
0
 62
7
 90
5
 70
1
  0
LWPOLYLINE
  8
0
 62
7
 90
5
 70
1
 10
27.509500
 20
33.175000
 10
27.509500
 20
33.112500
 10
27.991900
 20
33.112500
 10
27.991900
 20
33.237500
 10
27.509500
 20
33.237500
  0
LWPOLYLINE
  8
0
 62
7
 90
5
 70
1
  0
LWPOLYLINE
  8
0
 62
7
 90
5
 70
1
 10
27.509500
 20
33.825000
 10
27.509500
 20
33.762500
 10
27.991900
 20
33.762500
 10
27.991900
 20
33.887500
 10
27.509500
 20
33.887500
  0
LWPOLYLINE
  8
0
 62
7
 90
5
 70
1
  0
LWPOLYLINE
  8
0
 62
7
 90
5
 70
1
 10
27.509500
 20
34.475000
 10
27.509500
 20
34.412500
 10
27.991900
 20
34.412500
 10
27.991900
 20
34.537500
 10
27.509500
 20
34.537500
  0
LWPOLYLINE
  8
0
 62
7
 90
5
 70
1
  0
LWPOLYLINE
  8
0
 62
7
 90
5
 70
1
 10
27.509500
 20
35.125000
 10
27.509500
 20
35.062500
 10
27.991900
 20
35.062500
 10
27.991900
 20
35.187500
 10
27.509500
 20
35.187500
  0
LWPOLYLINE
  8
0
 62
7
 90
5
 70
1
  0
LWPOLYLINE
  8
0
 62
7
 90
5
 70
1
 10
25.050000
 20
31.539500
 10
26.685500
 20
31.539500
 10
26.685500
 20
34.810500
 10
23.414500
 20
34.810500
 10
23.414500
 20
31.539500
  0
LWPOLYLINE
  8
0
 62
7
 90
5
 70
1
 10
78.550000
 20
39.300000
 10
78.550000
 20
39.550000
 10
78.150000
 20
39.550000
 10
78.150000
 20
39.050000
 10
78.550000
 20
39.050000
  0
LWPOLYLINE
  8
0
 62
7
 90
5
 70
1
 10
80.450000
 20
39.300000
 10
80.450000
 20
39.550000
 10
80.050000
 20
39.550000
 10
80.050000
 20
39.050000
 10
80.450000
 20
39.050000
  0
LWPOLYLINE
  8
0
 62
7
 90
5
 70
1
 10
79.500000
 20
41.300000
 10
79.500000
 20
41.550000
 10
79.100000
 20
41.550000
 10
79.100000
 20
41.050000
 10
79.500000
 20
41.050000
  0
LWPOLYLINE
  8
0
 62
7
 90
5
 70
1
 10
67.403553
 20
40.003553
 10
67.803553
 20
40.003553
 10
67.803553
 20
40.803553
 10
67.003553
 20
40.803553
 10
67.003553
 20
40.003553
  0
LWPOLYLINE
  8
0
 62
7
 90
5
 70
1
 10
69.403553
 20
40.003553
 10
69.803553
 20
40.003553
 10
69.803553
 20
40.803553
 10
69.003553
 20
40.803553
 10
69.003553
 20
40.003553
  0
LWPOLYLINE
  8
0
 62
7
 90
5
 70
1
 10
67.403553
 20
42.003553
 10
67.803553
 20
42.003553
 10
67.803553
 20
42.803553
 10
67.003553
 20
42.803553
 10
67.003553
 20
42.003553
  0
LWPOLYLINE
  8
0
 62
7
 90
5
 70
1
 10
69.403553
 20
42.003553
 10
69.803553
 20
42.003553
 10
69.803553
 20
42.803553
 10
69.003553
 20
42.803553
 10
69.003553
 20
42.003553
  0
LWPOLYLINE
  8
0
 62
7
 90
5
 70
1
 10
19.225000
 20
24.175000
 10
19.225000
 20
23.425000
 10
19.625000
 20
23.425000
 10
19.625000
 20
24.925000
 10
19.225000
 20
24.925000
  0
LWPOLYLINE
  8
0
 62
7
 90
5
 70
1
 10
20.475000
 20
24.175000
 10
20.475000
 20
23.425000
 10
20.875000
 20
23.425000
 10
20.875000
 20
24.925000
 10
20.475000
 20
24.925000
  0
LWPOLYLINE
  8
0
 62
7
 90
5
 70
1
 10
21.900000
 20
26.225000
 10
22.300000
 20
26.225000
 10
22.300000
 20
28.825000
 10
21.500000
 20
28.825000
 10
21.500000
 20
26.225000
  0
LWPOLYLINE
  8
0
 62
7
 90
5
 70
1
 10
18.200000
 20
26.225000
 10
18.600000
 20
26.225000
 10
18.600000
 20
28.825000
 10
17.800000
 20
28.825000
 10
17.800000
 20
26.225000
  0
LWPOLYLINE
  8
0
 62
7
 90
5
 70
1
 10
25.225000
 20
24.175000
 10
25.225000
 20
23.425000
 10
25.625000
 20
23.425000
 10
25.625000
 20
24.925000
 10
25.225000
 20
24.925000
  0
LWPOLYLINE
  8
0
 62
7
 90
5
 70
1
 10
26.475000
 20
24.175000
 10
26.475000
 20
23.425000
 10
26.875000
 20
23.425000
 10
26.875000
 20
24.925000
 10
26.475000
 20
24.925000
  0
LWPOLYLINE
  8
0
 62
7
 90
5
 70
1
 10
27.900000
 20
26.225000
 10
28.300000
 20
26.225000
 10
28.300000
 20
28.825000
 10
27.500000
 20
28.825000
 10
27.500000
 20
26.225000
  0
LWPOLYLINE
  8
0
 62
7
 90
5
 70
1
 10
24.200000
 20
26.225000
 10
24.600000
 20
26.225000
 10
24.600000
 20
28.825000
 10
23.800000
 20
28.825000
 10
23.800000
 20
26.225000
  0
LWPOLYLINE
  8
0
 62
7
 90
5
 70
1
 10
31.225000
 20
24.175000
 10
31.225000
 20
23.425000
 10
31.625000
 20
23.425000
 10
31.625000
 20
24.925000
 10
31.225000
 20
24.925000
  0
LWPOLYLINE
  8
0
 62
7
 90
5
 70
1
 10
32.475000
 20
24.175000
 10
32.475000
 20
23.425000
 10
32.875000
 20
23.425000
 10
32.875000
 20
24.925000
 10
32.475000
 20
24.925000
  0
LWPOLYLINE
  8
0
 62
7
 90
5
 70
1
 10
33.900000
 20
26.225000
 10
34.300000
 20
26.225000
 10
34.300000
 20
28.825000
 10
33.500000
 20
28.825000
 10
33.500000
 20
26.225000
  0
LWPOLYLINE
  8
0
 62
7
 90
5
 70
1
 10
30.200000
 20
26.225000
 10
30.600000
 20
26.225000
 10
30.600000
 20
28.825000
 10
29.800000
 20
28.825000
 10
29.800000
 20
26.225000
  0
LWPOLYLINE
  8
0
 62
7
 90
5
 70
1
 10
37.225000
 20
24.175000
 10
37.225000
 20
23.425000
 10
37.625000
 20
23.425000
 10
37.625000
 20
24.925000
 10
37.225000
 20
24.925000
  0
LWPOLYLINE
  8
0
 62
7
 90
5
 70
1
 10
38.475000
 20
24.175000
 10
38.475000
 20
23.425000
 10
38.875000
 20
23.425000
 10
38.875000
 20
24.925000
 10
38.475000
 20
24.925000
  0
LWPOLYLINE
  8
0
 62
7
 90
5
 70
1
 10
39.900000
 20
26.225000
 10
40.300000
 20
26.225000
 10
40.300000
 20
28.825000
 10
39.500000
 20
28.825000
 10
39.500000
 20
26.225000
  0
LWPOLYLINE
  8
0
 62
7
 90
5
 70
1
 10
36.200000
 20
26.225000
 10
36.600000
 20
26.225000
 10
36.600000
 20
28.825000
 10
35.800000
 20
28.825000
 10
35.800000
 20
26.225000
  0
LWPOLYLINE
  8
0
 62
7
 90
5
 70
1
 10
38.875000
 20
21.925000
 10
38.875000
 20
22.675000
 10
38.475000
 20
22.675000
 10
38.475000
 20
21.175000
 10
38.875000
 20
21.175000
  0
LWPOLYLINE
  8
0
 62
7
 90
5
 70
1
 10
37.625000
 20
21.925000
 10
37.625000
 20
22.675000
 10
37.225000
 20
22.675000
 10
37.225000
 20
21.175000
 10
37.625000
 20
21.175000
  0
LWPOLYLINE
  8
0
 62
7
 90
5
 70
1
 10
36.200000
 20
19.875000
 10
35.800000
 20
19.875000
 10
35.800000
 20
17.275000
 10
36.600000
 20
17.275000
 10
36.600000
 20
19.875000
  0
LWPOLYLINE
  8
0
 62
7
 90
5
 70
1
 10
39.900000
 20
19.875000
 10
39.500000
 20
19.875000
 10
39.500000
 20
17.275000
 10
40.300000
 20
17.275000
 10
40.300000
 20
19.875000
  0
LWPOLYLINE
  8
0
 62
7
 90
5
 70
1
 10
32.875000
 20
21.925000
 10
32.875000
 20
22.675000
 10
32.475000
 20
22.675000
 10
32.475000
 20
21.175000
 10
32.875000
 20
21.175000
  0
LWPOLYLINE
  8
0
 62
7
 90
5
 70
1
 10
31.625000
 20
21.925000
 10
31.625000
 20
22.675000
 10
31.225000
 20
22.675000
 10
31.225000
 20
21.175000
 10
31.625000
 20
21.175000
  0
LWPOLYLINE
  8
0
 62
7
 90
5
 70
1
 10
30.200000
 20
19.875000
 10
29.800000
 20
19.875000
 10
29.800000
 20
17.275000
 10
30.600000
 20
17.275000
 10
30.600000
 20
19.875000
  0
LWPOLYLINE
  8
0
 62
7
 90
5
 70
1
 10
33.900000
 20
19.875000
 10
33.500000
 20
19.875000
 10
33.500000
 20
17.275000
 10
34.300000
 20
17.275000
 10
34.300000
 20
19.875000
  0
LWPOLYLINE
  8
0
 62
7
 90
5
 70
1
 10
26.875000
 20
21.925000
 10
26.875000
 20
22.675000
 10
26.475000
 20
22.675000
 10
26.475000
 20
21.175000
 10
26.875000
 20
21.175000
  0
LWPOLYLINE
  8
0
 62
7
 90
5
 70
1
 10
25.625000
 20
21.925000
 10
25.625000
 20
22.675000
 10
25.225000
 20
22.675000
 10
25.225000
 20
21.175000
 10
25.625000
 20
21.175000
  0
LWPOLYLINE
  8
0
 62
7
 90
5
 70
1
 10
24.200000
 20
19.875000
 10
23.800000
 20
19.875000
 10
23.800000
 20
17.275000
 10
24.600000
 20
17.275000
 10
24.600000
 20
19.875000
  0
LWPOLYLINE
  8
0
 62
7
 90
5
 70
1
 10
27.900000
 20
19.875000
 10
27.500000
 20
19.875000
 10
27.500000
 20
17.275000
 10
28.300000
 20
17.275000
 10
28.300000
 20
19.875000
  0
LWPOLYLINE
  8
0
 62
7
 90
5
 70
1
 10
20.875000
 20
21.925000
 10
20.875000
 20
22.675000
 10
20.475000
 20
22.675000
 10
20.475000
 20
21.175000
 10
20.875000
 20
21.175000
  0
LWPOLYLINE
  8
0
 62
7
 90
5
 70
1
 10
19.625000
 20
21.925000
 10
19.625000
 20
22.675000
 10
19.225000
 20
22.675000
 10
19.225000
 20
21.175000
 10
19.625000
 20
21.175000
  0
LWPOLYLINE
  8
0
 62
7
 90
5
 70
1
 10
18.200000
 20
19.875000
 10
17.800000
 20
19.875000
 10
17.800000
 20
17.275000
 10
18.600000
 20
17.275000
 10
18.600000
 20
19.875000
  0
LWPOLYLINE
  8
0
 62
7
 90
5
 70
1
 10
21.900000
 20
19.875000
 10
21.500000
 20
19.875000
 10
21.500000
 20
17.275000
 10
22.300000
 20
17.275000
 10
22.300000
 20
19.875000
  0
LWPOLYLINE
  8
0
 62
7
 90
5
 70
1
 10
44.550000
 20
28.453000
 10
43.748500
 20
28.453000
 10
43.748500
 20
27.053000
 10
45.351500
 20
27.053000
 10
45.351500
 20
28.453000
  0
LWPOLYLINE
  8
0
 62
7
 90
5
 70
1
 10
44.550000
 20
31.297000
 10
43.748500
 20
31.297000
 10
43.748500
 20
29.897000
 10
45.351500
 20
29.897000
 10
45.351500
 20
31.297000
  0
LWPOLYLINE
  8
0
 62
7
 90
5
 70
1
 10
79.522000
 20
2.800000
 10
79.522000
 20
1.998500
 10
80.922000
 20
1.998500
 10
80.922000
 20
3.601500
 10
79.522000
 20
3.601500
  0
LWPOLYLINE
  8
0
 62
7
 90
5
 70
1
 10
76.678000
 20
2.800000
 10
76.678000
 20
1.998500
 10
78.078000
 20
1.998500
 10
78.078000
 20
3.601500
 10
76.678000
 20
3.601500
  0
LWPOLYLINE
  8
0
 62
7
 90
5
 70
1
 10
79.522000
 20
0.800000
 10
79.522000
 20
-0.001500
 10
80.922000
 20
-0.001500
 10
80.922000
 20
1.601500
 10
79.522000
 20
1.601500
  0
LWPOLYLINE
  8
0
 62
7
 90
5
 70
1
 10
76.678000
 20
0.800000
 10
76.678000
 20
-0.001500
 10
78.078000
 20
-0.001500
 10
78.078000
 20
1.601500
 10
76.678000
 20
1.601500
  0
LWPOLYLINE
  8
0
 62
7
 90
5
 70
1
 10
35.953000
 20
32.050000
 10
35.953000
 20
32.851500
 10
34.553000
 20
32.851500
 10
34.553000
 20
31.248500
 10
35.953000
 20
31.248500
  0
LWPOLYLINE
  8
0
 62
7
 90
5
 70
1
 10
38.797000
 20
32.050000
 10
38.797000
 20
32.851500
 10
37.397000
 20
32.851500
 10
37.397000
 20
31.248500
 10
38.797000
 20
31.248500
  0
LWPOLYLINE
  8
0
 62
7
 90
5
 70
1
 10
45.050000
 20
20.583000
 10
44.159400
 20
20.583000
 10
44.159400
 20
19.767000
 10
45.940600
 20
19.767000
 10
45.940600
 20
20.583000
  0
LWPOLYLINE
  8
0
 62
7
 90
5
 70
1
 10
45.050000
 20
24.583500
 10
44.159400
 20
24.583500
 10
44.159400
 20
23.767500
 10
45.940600
 20
23.767500
 10
45.940600
 20
24.583500
  0
LWPOLYLINE
  8
0
 62
7
 90
5
 70
1
 10
62.175000
 20
-1.799800
 10
63.192600
 20
-1.799800
 10
63.192600
 20
-0.272600
 10
61.157400
 20
-0.272600
 10
61.157400
 20
-1.799800
  0
LWPOLYLINE
  8
0
 62
7
 90
5
 70
1
 10
63.165600
 20
-2.155400
 10
63.268800
 20
-2.155400
 10
63.268800
 20
-1.593400
 10
63.062400
 20
-1.593400
 10
63.062400
 20
-2.155400
  0
LWPOLYLINE
  8
0
 62
7
 90
5
 70
1
 10
62.505200
 20
-2.155400
 10
62.608400
 20
-2.155400
 10
62.608400
 20
-1.593400
 10
62.402000
 20
-1.593400
 10
62.402000
 20
-2.155400
  0
LWPOLYLINE
  8
0
 62
7
 90
5
 70
1
 10
61.844800
 20
-2.155400
 10
61.948000
 20
-2.155400
 10
61.948000
 20
-1.593400
 10
61.741600
 20
-1.593400
 10
61.741600
 20
-2.155400
  0
LWPOLYLINE
  8
0
 62
7
 90
5
 70
1
 10
61.184400
 20
-2.155400
 10
61.287600
 20
-2.155400
 10
61.287600
 20
-1.593400
 10
61.081200
 20
-1.593400
 10
61.081200
 20
-2.155400
  0
LWPOLYLINE
  8
0
 62
7
 90
5
 70
1
 10
61.184400
 20
0.714800
 10
61.287600
 20
0.714800
 10
61.287600
 20
1.505400
 10
61.081200
 20
1.505400
 10
61.081200
 20
0.714800
  0
LWPOLYLINE
  8
0
 62
7
 90
5
 70
1
 10
63.165600
 20
0.714800
 10
63.268800
 20
0.714800
 10
63.268800
 20
1.505400
 10
63.062400
 20
1.505400
 10
63.062400
 20
0.714800
  0
LWPOLYLINE
  8
0
 62
7
 90
5
 70
1
 10
62.505200
 20
0.714800
 10
62.608400
 20
0.714800
 10
62.608400
 20
1.505400
 10
62.402000
 20
1.505400
 10
62.402000
 20
0.714800
  0
LWPOLYLINE
  8
0
 62
7
 90
5
 70
1
 10
61.844800
 20
0.714800
 10
61.948000
 20
0.714800
 10
61.948000
 20
1.505400
 10
61.741600
 20
1.505400
 10
61.741600
 20
0.714800
  0
LWPOLYLINE
  8
0
 62
7
 90
5
 70
1
 10
86.050000
 20
41.450000
 10
86.400000
 20
41.450000
 10
86.400000
 20
41.950000
 10
85.700000
 20
41.950000
 10
85.700000
 20
41.450000
  0
LWPOLYLINE
  8
0
 62
7
 90
5
 70
1
 10
86.050000
 20
40.150000
 10
86.400000
 20
40.150000
 10
86.400000
 20
40.650000
 10
85.700000
 20
40.650000
 10
85.700000
 20
40.150000
  0
LWPOLYLINE
  8
0
 62
7
 90
5
 70
1
 10
82.650000
 20
40.050000
 10
82.650000
 20
40.400000
 10
82.150000
 20
40.400000
 10
82.150000
 20
39.700000
 10
82.650000
 20
39.700000
  0
LWPOLYLINE
  8
0
 62
7
 90
5
 70
1
 10
83.950000
 20
40.050000
 10
83.950000
 20
40.400000
 10
83.450000
 20
40.400000
 10
83.450000
 20
39.700000
 10
83.950000
 20
39.700000
  0
LWPOLYLINE
  8
0
 62
7
 90
5
 70
1
 10
86.050000
 20
38.450000
 10
86.400000
 20
38.450000
 10
86.400000
 20
38.950000
 10
85.700000
 20
38.950000
 10
85.700000
 20
38.450000
  0
LWPOLYLINE
  8
0
 62
7
 90
5
 70
1
 10
86.050000
 20
37.150000
 10
86.400000
 20
37.150000
 10
86.400000
 20
37.650000
 10
85.700000
 20
37.650000
 10
85.700000
 20
37.150000
  0
LWPOLYLINE
  8
0
 62
7
 90
5
 70
1
 10
83.450000
 20
38.800000
 10
83.450000
 20
38.450000
 10
83.950000
 20
38.450000
 10
83.950000
 20
39.150000
 10
83.450000
 20
39.150000
  0
LWPOLYLINE
  8
0
 62
7
 90
5
 70
1
 10
82.150000
 20
38.800000
 10
82.150000
 20
38.450000
 10
82.650000
 20
38.450000
 10
82.650000
 20
39.150000
 10
82.150000
 20
39.150000
  0
LWPOLYLINE
  8
0
 62
7
 90
5
 70
1
 10
75.700000
 20
40.550000
 10
75.700000
 20
40.200000
 10
76.200000
 20
40.200000
 10
76.200000
 20
40.900000
 10
75.700000
 20
40.900000
  0
LWPOLYLINE
  8
0
 62
7
 90
5
 70
1
 10
74.400000
 20
40.550000
 10
74.400000
 20
40.200000
 10
74.900000
 20
40.200000
 10
74.900000
 20
40.900000
 10
74.400000
 20
40.900000
  0
LWPOLYLINE
  8
0
 62
7
 90
5
 70
1
 10
31.000000
 20
34.600000
 10
31.000000
 20
34.900000
 10
30.700000
 20
34.900000
 10
30.700000
 20
34.300000
 10
31.000000
 20
34.300000
  0
LWPOLYLINE
  8
0
 62
7
 90
5
 70
1
 10
31.000000
 20
33.000000
 10
31.000000
 20
33.300000
 10
30.700000
 20
33.300000
 10
30.700000
 20
32.700000
 10
31.000000
 20
32.700000
  0
LWPOLYLINE
  8
0
 62
7
 90
5
 70
1
 10
31.800000
 20
34.600000
 10
31.800000
 20
34.900000
 10
31.500000
 20
34.900000
 10
31.500000
 20
34.300000
 10
31.800000
 20
34.300000
  0
LWPOLYLINE
  8
0
 62
7
 90
5
 70
1
 10
31.800000
 20
33.000000
 10
31.800000
 20
33.300000
 10
31.500000
 20
33.300000
 10
31.500000
 20
32.700000
 10
31.800000
 20
32.700000
  0
LWPOLYLINE
  8
0
 62
7
 90
5
 70
1
 10
32.600000
 20
34.600000
 10
32.600000
 20
34.900000
 10
32.300000
 20
34.900000
 10
32.300000
 20
34.300000
 10
32.600000
 20
34.300000
  0
LWPOLYLINE
  8
0
 62
7
 90
5
 70
1
 10
32.600000
 20
33.000000
 10
32.600000
 20
33.300000
 10
32.300000
 20
33.300000
 10
32.300000
 20
32.700000
 10
32.600000
 20
32.700000
  0
LWPOLYLINE
  8
0
 62
7
 90
5
 70
1
 10
33.400000
 20
34.600000
 10
33.400000
 20
34.900000
 10
33.100000
 20
34.900000
 10
33.100000
 20
34.300000
 10
33.400000
 20
34.300000
  0
LWPOLYLINE
  8
0
 62
7
 90
5
 70
1
 10
33.400000
 20
33.000000
 10
33.400000
 20
33.300000
 10
33.100000
 20
33.300000
 10
33.100000
 20
32.700000
 10
33.400000
 20
32.700000
  0
LWPOLYLINE
  8
0
 62
7
 90
5
 70
1
 10
68.500000
 20
50.850000
 10
68.500000
 20
51.150000
 10
68.200000
 20
51.150000
 10
68.200000
 20
50.550000
 10
68.500000
 20
50.550000
  0
LWPOLYLINE
  8
0
 62
7
 90
5
 70
1
 10
68.500000
 20
49.250000
 10
68.500000
 20
49.550000
 10
68.200000
 20
49.550000
 10
68.200000
 20
48.950000
 10
68.500000
 20
48.950000
  0
LWPOLYLINE
  8
0
 62
7
 90
5
 70
1
 10
69.300000
 20
50.850000
 10
69.300000
 20
51.150000
 10
69.000000
 20
51.150000
 10
69.000000
 20
50.550000
 10
69.300000
 20
50.550000
  0
LWPOLYLINE
  8
0
 62
7
 90
5
 70
1
 10
69.300000
 20
49.250000
 10
69.300000
 20
49.550000
 10
69.000000
 20
49.550000
 10
69.000000
 20
48.950000
 10
69.300000
 20
48.950000
  0
LWPOLYLINE
  8
0
 62
7
 90
5
 70
1
 10
70.100000
 20
50.850000
 10
70.100000
 20
51.150000
 10
69.800000
 20
51.150000
 10
69.800000
 20
50.550000
 10
70.100000
 20
50.550000
  0
LWPOLYLINE
  8
0
 62
7
 90
5
 70
1
 10
70.100000
 20
49.250000
 10
70.100000
 20
49.550000
 10
69.800000
 20
49.550000
 10
69.800000
 20
48.950000
 10
70.100000
 20
48.950000
  0
LWPOLYLINE
  8
0
 62
7
 90
5
 70
1
 10
70.900000
 20
50.850000
 10
70.900000
 20
51.150000
 10
70.600000
 20
51.150000
 10
70.600000
 20
50.550000
 10
70.900000
 20
50.550000
  0
LWPOLYLINE
  8
0
 62
7
 90
5
 70
1
 10
70.900000
 20
49.250000
 10
70.900000
 20
49.550000
 10
70.600000
 20
49.550000
 10
70.600000
 20
48.950000
 10
70.900000
 20
48.950000
  0
LWPOLYLINE
  8
0
 62
7
 90
5
 70
1
 10
51.000000
 20
51.100000
 10
51.000000
 20
51.400000
 10
50.700000
 20
51.400000
 10
50.700000
 20
50.800000
 10
51.000000
 20
50.800000
  0
LWPOLYLINE
  8
0
 62
7
 90
5
 70
1
 10
51.000000
 20
49.500000
 10
51.000000
 20
49.800000
 10
50.700000
 20
49.800000
 10
50.700000
 20
49.200000
 10
51.000000
 20
49.200000
  0
LWPOLYLINE
  8
0
 62
7
 90
5
 70
1
 10
51.800000
 20
51.100000
 10
51.800000
 20
51.400000
 10
51.500000
 20
51.400000
 10
51.500000
 20
50.800000
 10
51.800000
 20
50.800000
  0
LWPOLYLINE
  8
0
 62
7
 90
5
 70
1
 10
51.800000
 20
49.500000
 10
51.800000
 20
49.800000
 10
51.500000
 20
49.800000
 10
51.500000
 20
49.200000
 10
51.800000
 20
49.200000
  0
LWPOLYLINE
  8
0
 62
7
 90
5
 70
1
 10
52.600000
 20
51.100000
 10
52.600000
 20
51.400000
 10
52.300000
 20
51.400000
 10
52.300000
 20
50.800000
 10
52.600000
 20
50.800000
  0
LWPOLYLINE
  8
0
 62
7
 90
5
 70
1
 10
52.600000
 20
49.500000
 10
52.600000
 20
49.800000
 10
52.300000
 20
49.800000
 10
52.300000
 20
49.200000
 10
52.600000
 20
49.200000
  0
LWPOLYLINE
  8
0
 62
7
 90
5
 70
1
 10
53.400000
 20
51.100000
 10
53.400000
 20
51.400000
 10
53.100000
 20
51.400000
 10
53.100000
 20
50.800000
 10
53.400000
 20
50.800000
  0
LWPOLYLINE
  8
0
 62
7
 90
5
 70
1
 10
53.400000
 20
49.500000
 10
53.400000
 20
49.800000
 10
53.100000
 20
49.800000
 10
53.100000
 20
49.200000
 10
53.400000
 20
49.200000
  0
LWPOLYLINE
  8
0
 62
7
 90
5
 70
1
 10
47.250000
 20
50.600000
 10
47.250000
 20
50.900000
 10
46.950000
 20
50.900000
 10
46.950000
 20
50.300000
 10
47.250000
 20
50.300000
  0
LWPOLYLINE
  8
0
 62
7
 90
5
 70
1
 10
47.250000
 20
49.000000
 10
47.250000
 20
49.300000
 10
46.950000
 20
49.300000
 10
46.950000
 20
48.700000
 10
47.250000
 20
48.700000
  0
LWPOLYLINE
  8
0
 62
7
 90
5
 70
1
 10
48.050000
 20
50.600000
 10
48.050000
 20
50.900000
 10
47.750000
 20
50.900000
 10
47.750000
 20
50.300000
 10
48.050000
 20
50.300000
  0
LWPOLYLINE
  8
0
 62
7
 90
5
 70
1
 10
48.050000
 20
49.000000
 10
48.050000
 20
49.300000
 10
47.750000
 20
49.300000
 10
47.750000
 20
48.700000
 10
48.050000
 20
48.700000
  0
LWPOLYLINE
  8
0
 62
7
 90
5
 70
1
 10
48.850000
 20
50.600000
 10
48.850000
 20
50.900000
 10
48.550000
 20
50.900000
 10
48.550000
 20
50.300000
 10
48.850000
 20
50.300000
  0
LWPOLYLINE
  8
0
 62
7
 90
5
 70
1
 10
48.850000
 20
49.000000
 10
48.850000
 20
49.300000
 10
48.550000
 20
49.300000
 10
48.550000
 20
48.700000
 10
48.850000
 20
48.700000
  0
LWPOLYLINE
  8
0
 62
7
 90
5
 70
1
 10
49.650000
 20
50.600000
 10
49.650000
 20
50.900000
 10
49.350000
 20
50.900000
 10
49.350000
 20
50.300000
 10
49.650000
 20
50.300000
  0
LWPOLYLINE
  8
0
 62
7
 90
5
 70
1
 10
49.650000
 20
49.000000
 10
49.650000
 20
49.300000
 10
49.350000
 20
49.300000
 10
49.350000
 20
48.700000
 10
49.650000
 20
48.700000
  0
LWPOLYLINE
  8
0
 62
7
 90
5
 70
1
 10
30.750000
 20
50.600000
 10
30.750000
 20
50.900000
 10
30.450000
 20
50.900000
 10
30.450000
 20
50.300000
 10
30.750000
 20
50.300000
  0
LWPOLYLINE
  8
0
 62
7
 90
5
 70
1
 10
30.750000
 20
49.000000
 10
30.750000
 20
49.300000
 10
30.450000
 20
49.300000
 10
30.450000
 20
48.700000
 10
30.750000
 20
48.700000
  0
LWPOLYLINE
  8
0
 62
7
 90
5
 70
1
 10
31.550000
 20
50.600000
 10
31.550000
 20
50.900000
 10
31.250000
 20
50.900000
 10
31.250000
 20
50.300000
 10
31.550000
 20
50.300000
  0
LWPOLYLINE
  8
0
 62
7
 90
5
 70
1
 10
31.550000
 20
49.000000
 10
31.550000
 20
49.300000
 10
31.250000
 20
49.300000
 10
31.250000
 20
48.700000
 10
31.550000
 20
48.700000
  0
LWPOLYLINE
  8
0
 62
7
 90
5
 70
1
 10
32.350000
 20
50.600000
 10
32.350000
 20
50.900000
 10
32.050000
 20
50.900000
 10
32.050000
 20
50.300000
 10
32.350000
 20
50.300000
  0
LWPOLYLINE
  8
0
 62
7
 90
5
 70
1
 10
32.350000
 20
49.000000
 10
32.350000
 20
49.300000
 10
32.050000
 20
49.300000
 10
32.050000
 20
48.700000
 10
32.350000
 20
48.700000
  0
LWPOLYLINE
  8
0
 62
7
 90
5
 70
1
 10
33.150000
 20
50.600000
 10
33.150000
 20
50.900000
 10
32.850000
 20
50.900000
 10
32.850000
 20
50.300000
 10
33.150000
 20
50.300000
  0
LWPOLYLINE
  8
0
 62
7
 90
5
 70
1
 10
33.150000
 20
49.000000
 10
33.150000
 20
49.300000
 10
32.850000
 20
49.300000
 10
32.850000
 20
48.700000
 10
33.150000
 20
48.700000
  0
LWPOLYLINE
  8
0
 62
7
 90
5
 70
1
 10
69.795800
 20
20.686100
 10
68.892500
 20
20.686100
 10
68.892500
 20
19.793900
 10
70.699100
 20
19.793900
 10
70.699100
 20
20.686100
  0
LWPOLYLINE
  8
0
 62
7
 90
5
 70
1
 10
69.795800
 20
23.226100
 10
68.892500
 20
23.226100
 10
68.892500
 20
22.333900
 10
70.699100
 20
22.333900
 10
70.699100
 20
23.226100
  0
LWPOLYLINE
  8
0
 62
7
 90
5
 70
1
 10
69.795800
 20
25.766100
 10
68.892500
 20
25.766100
 10
68.892500
 20
24.873900
 10
70.699100
 20
24.873900
 10
70.699100
 20
25.766100
  0
LWPOLYLINE
  8
0
 62
7
 90
5
 70
1
 10
69.795800
 20
28.306100
 10
68.892500
 20
28.306100
 10
68.892500
 20
27.413900
 10
70.699100
 20
27.413900
 10
70.699100
 20
28.306100
  0
LWPOLYLINE
  8
0
 62
7
 90
5
 70
1
 10
60.804200
 20
28.306100
 10
59.900900
 20
28.306100
 10
59.900900
 20
27.413900
 10
61.707500
 20
27.413900
 10
61.707500
 20
28.306100
  0
LWPOLYLINE
  8
0
 62
7
 90
5
 70
1
 10
60.804200
 20
25.766100
 10
59.900900
 20
25.766100
 10
59.900900
 20
24.873900
 10
61.707500
 20
24.873900
 10
61.707500
 20
25.766100
  0
LWPOLYLINE
  8
0
 62
7
 90
5
 70
1
 10
60.804200
 20
23.226100
 10
59.900900
 20
23.226100
 10
59.900900
 20
22.333900
 10
61.707500
 20
22.333900
 10
61.707500
 20
23.226100
  0
LWPOLYLINE
  8
0
 62
7
 90
5
 70
1
 10
60.804200
 20
20.686100
 10
59.900900
 20
20.686100
 10
59.900900
 20
19.793900
 10
61.707500
 20
19.793900
 10
61.707500
 20
20.686100
  0
ENDSEC
  0
EOF
